<?xml version="1.0" encoding="UTF-8"?>
<svg xmlns="http://www.w3.org/2000/svg" xmlns:xlink="http://www.w3.org/1999/xlink" width="48pt" height="48pt" viewBox="0 0 48 48">
<path fill="none" stroke-width="1.875" stroke-linecap="round" stroke-linejoin="round" stroke="rgb(85.488892%, 86.665344%, 88.233948%)" stroke-opacity="1" stroke-miterlimit="4" d="M 16.5 6.75 C 16.949219 8.625 17.851562 10.875 18.75 12.75 C 21 11.398438 22.5 11.101562 24 11.25 C 25.5 11.101562 27 11.398438 29.25 12.75 C 30.148438 10.875 31.050781 8.625 31.5 6.75 C 31.949219 8.625 33.75 11.25 35.25 14.25 C 37.125 18 37.648438 22.5 37.125 27 C 36 34.5 30.75 39.75 24 39.75 C 17.25 39.75 12 34.5 10.875 27 C 10.351562 22.5 10.5 18 12.75 14.25 C 14.25 11.25 16.050781 8.625 16.5 6.75 Z M 16.5 6.75 "/>
<path fill="none" stroke-width="1.35" stroke-linecap="round" stroke-linejoin="round" stroke="rgb(85.488892%, 86.665344%, 88.233948%)" stroke-opacity="1" stroke-miterlimit="4" d="M 21.148438 39.75 C 20.699219 40.949219 20.550781 42 21 42.898438 C 21.675781 42 22.199219 40.949219 22.5 39.75 "/>
<path fill="none" stroke-width="1.35" stroke-linecap="round" stroke-linejoin="round" stroke="rgb(85.488892%, 86.665344%, 88.233948%)" stroke-opacity="1" stroke-miterlimit="4" d="M 23.175781 39.75 C 22.875 41.25 23.101562 42.898438 24 43.726562 C 24.898438 42.898438 25.125 41.25 24.824219 39.75 "/>
<path fill="none" stroke-width="1.35" stroke-linecap="round" stroke-linejoin="round" stroke="rgb(85.488892%, 86.665344%, 88.233948%)" stroke-opacity="1" stroke-miterlimit="4" d="M 26.851562 39.75 C 27.300781 40.949219 27.449219 42 27 42.898438 C 26.324219 42 25.800781 40.949219 25.5 39.75 "/>
<path fill="none" stroke-width="1.35" stroke-linecap="round" stroke-linejoin="round" stroke="rgb(85.488892%, 86.665344%, 88.233948%)" stroke-opacity="1" stroke-miterlimit="4" d="M 14.25 27.75 C 17.25 30.75 18.75 34.5 19.5 38.625 "/>
<path fill="none" stroke-width="1.35" stroke-linecap="round" stroke-linejoin="round" stroke="rgb(85.488892%, 86.665344%, 88.233948%)" stroke-opacity="1" stroke-miterlimit="4" d="M 33.75 27.75 C 30.75 30.75 29.25 34.5 28.5 38.625 "/>
<path fill-rule="nonzero" fill="rgb(0%, 0%, 0%)" fill-opacity="1" stroke-width="0.95625" stroke-linecap="butt" stroke-linejoin="miter" stroke="rgb(58.822632%, 61.175537%, 63.920593%)" stroke-opacity="1" stroke-miterlimit="4" d="M 19.539062 21 L 24 28.648438 "/>
<path fill-rule="nonzero" fill="rgb(0%, 0%, 0%)" fill-opacity="1" stroke-width="0.95625" stroke-linecap="butt" stroke-linejoin="miter" stroke="rgb(58.822632%, 61.175537%, 63.920593%)" stroke-opacity="1" stroke-miterlimit="4" d="M 28.460938 21 L 24 28.648438 "/>
<path fill="none" stroke-width="1.275" stroke-linecap="round" stroke-linejoin="miter" stroke="rgb(70.195007%, 72.155762%, 74.508667%)" stroke-opacity="1" stroke-dasharray="2.55 1.9125" stroke-miterlimit="4" d="M 19.21875 16.539062 L 28.78125 16.539062 C 31.246094 16.539062 33.242188 18.535156 33.242188 21 C 33.242188 23.464844 31.246094 25.460938 28.78125 25.460938 L 19.21875 25.460938 C 16.753906 25.460938 14.757812 23.464844 14.757812 21 C 14.757812 18.535156 16.753906 16.539062 19.21875 16.539062 Z M 19.21875 16.539062 "/>
<path fill-rule="nonzero" fill="rgb(96.861267%, 74.116516%, 24.313354%)" fill-opacity="1" d="M 21.703125 21 C 21.703125 22.195312 20.734375 23.167969 19.539062 23.167969 C 18.339844 23.167969 17.371094 22.195312 17.371094 21 C 17.371094 19.804688 18.339844 18.832031 19.539062 18.832031 C 20.734375 18.832031 21.703125 19.804688 21.703125 21 Z M 21.703125 21 "/>
<path fill-rule="nonzero" fill="rgb(96.861267%, 74.116516%, 24.313354%)" fill-opacity="1" d="M 30.628906 21 C 30.628906 22.195312 29.660156 23.167969 28.460938 23.167969 C 27.265625 23.167969 26.296875 22.195312 26.296875 21 C 26.296875 19.804688 27.265625 18.832031 28.460938 18.832031 C 29.660156 18.832031 30.628906 19.804688 30.628906 21 Z M 30.628906 21 "/>
<path fill-rule="nonzero" fill="rgb(96.861267%, 74.116516%, 24.313354%)" fill-opacity="1" d="M 25.65625 28.648438 C 25.65625 29.566406 24.914062 30.308594 24 30.308594 C 23.085938 30.308594 22.34375 29.566406 22.34375 28.648438 C 22.34375 27.734375 23.085938 26.992188 24 26.992188 C 24.914062 26.992188 25.65625 27.734375 25.65625 28.648438 Z M 25.65625 28.648438 "/>
<path fill="none" stroke-width="2.55" stroke-linecap="round" stroke-linejoin="round" stroke="rgb(52.548218%, 54.901123%, 57.646179%)" stroke-opacity="1" stroke-miterlimit="4" d="M 10.5 35.625 L 42 35.324219 "/>
<path fill="none" stroke-width="2.55" stroke-linecap="round" stroke-linejoin="round" stroke="rgb(52.548218%, 54.901123%, 57.646179%)" stroke-opacity="1" stroke-miterlimit="4" d="M 28.875 35.476562 L 42 36 "/>
<path fill="none" stroke-width="1.35" stroke-linecap="round" stroke-linejoin="round" stroke="rgb(52.548218%, 54.901123%, 57.646179%)" stroke-opacity="1" stroke-miterlimit="4" d="M 36.75 38.25 C 37.25 37.25 37.875 36.375 38.625 35.625 "/>
<path fill-rule="nonzero" fill="rgb(62.35199%, 68.234253%, 34.117126%)" fill-opacity="1" d="M 38.625 35.625 C 39.023438 33.273438 40.351562 32.101562 42.601562 32.101562 C 42.199219 34.449219 40.875 35.625 38.625 35.625 Z M 38.625 35.625 "/>
<path fill-rule="nonzero" fill="rgb(85.488892%, 86.665344%, 88.233948%)" fill-opacity="1" d="M 21.824219 34.5 C 21.824219 35.121094 21.320312 35.625 20.699219 35.625 C 20.078125 35.625 19.574219 35.121094 19.574219 34.5 C 19.574219 33.878906 20.078125 33.375 20.699219 33.375 C 21.320312 33.375 21.824219 33.878906 21.824219 34.5 Z M 21.824219 34.5 "/>
<path fill-rule="nonzero" fill="rgb(85.488892%, 86.665344%, 88.233948%)" fill-opacity="1" d="M 22.875 34.800781 C 22.875 35.421875 22.371094 35.925781 21.75 35.925781 C 21.128906 35.925781 20.625 35.421875 20.625 34.800781 C 20.625 34.179688 21.128906 33.675781 21.75 33.675781 C 22.371094 33.675781 22.875 34.179688 22.875 34.800781 Z M 22.875 34.800781 "/>
<path fill-rule="nonzero" fill="rgb(85.488892%, 86.665344%, 88.233948%)" fill-opacity="1" d="M 23.925781 34.5 C 23.925781 35.121094 23.421875 35.625 22.800781 35.625 C 22.179688 35.625 21.675781 35.121094 21.675781 34.5 C 21.675781 33.878906 22.179688 33.375 22.800781 33.375 C 23.421875 33.375 23.925781 33.878906 23.925781 34.5 Z M 23.925781 34.5 "/>
<path fill-rule="nonzero" fill="rgb(85.488892%, 86.665344%, 88.233948%)" fill-opacity="1" d="M 26.324219 34.5 C 26.324219 35.121094 25.820312 35.625 25.199219 35.625 C 24.578125 35.625 24.074219 35.121094 24.074219 34.5 C 24.074219 33.878906 24.578125 33.375 25.199219 33.375 C 25.820312 33.375 26.324219 33.878906 26.324219 34.5 Z M 26.324219 34.5 "/>
<path fill-rule="nonzero" fill="rgb(85.488892%, 86.665344%, 88.233948%)" fill-opacity="1" d="M 27.375 34.800781 C 27.375 35.421875 26.871094 35.925781 26.25 35.925781 C 25.628906 35.925781 25.125 35.421875 25.125 34.800781 C 25.125 34.179688 25.628906 33.675781 26.25 33.675781 C 26.871094 33.675781 27.375 34.179688 27.375 34.800781 Z M 27.375 34.800781 "/>
<path fill-rule="nonzero" fill="rgb(85.488892%, 86.665344%, 88.233948%)" fill-opacity="1" d="M 28.425781 34.5 C 28.425781 35.121094 27.921875 35.625 27.300781 35.625 C 26.679688 35.625 26.175781 35.121094 26.175781 34.5 C 26.175781 33.878906 26.679688 33.375 27.300781 33.375 C 27.921875 33.375 28.425781 33.878906 28.425781 34.5 Z M 28.425781 34.5 "/>
</svg>
