<?xml version="1.0" encoding="UTF-8"?>
<svg xmlns="http://www.w3.org/2000/svg" xmlns:xlink="http://www.w3.org/1999/xlink" width="253.947pt" height="82.821pt" viewBox="0 0 253.947 82.821">
<defs>
<g>
<g id="glyph-0-0">
<path d="M 9.09375 -9.5625 L 9.09375 -15.15625 C 11.390625 -15.15625 16.453125 -15.015625 19.75 -14.6875 L 19.890625 -14.828125 C 19.796875 -15.25 19.75 -15.921875 19.75 -16.359375 C 19.75 -16.78125 19.796875 -17.453125 19.890625 -17.890625 L 19.75 -18.03125 C 16.9375 -17.796875 14.734375 -17.546875 9.09375 -17.546875 L 9.09375 -21.28125 C 9.09375 -22.09375 9.140625 -27.015625 9.46875 -28.171875 C 15.875 -28.171875 22.484375 -27.59375 22.484375 -27.59375 L 22.578125 -27.78125 C 22.53125 -28.171875 22.484375 -28.59375 22.484375 -29.03125 C 22.484375 -29.421875 22.53125 -30.171875 22.578125 -30.84375 L 22.484375 -31 C 21.71875 -30.890625 20.609375 -30.84375 19.609375 -30.84375 L 7.03125 -30.84375 C 5.40625 -30.84375 4.59375 -31 4.59375 -31 L 4.5 -30.84375 C 4.875 -28.125 4.96875 -24.875 4.96875 -21.28125 L 4.96875 -9.5625 C 4.96875 -5.984375 4.875 -2.578125 4.5 0 L 4.546875 0.140625 C 4.546875 0.140625 5.359375 0 7.03125 0 L 20.09375 0 C 21.09375 0 22.1875 0.046875 22.953125 0.140625 L 23.046875 0 C 23 -0.671875 22.953125 -1 22.953125 -1.484375 C 22.953125 -1.96875 23 -2.671875 23.046875 -3.0625 L 22.953125 -3.25 C 22.953125 -3.25 15.875 -2.671875 9.46875 -2.671875 C 9.140625 -3.828125 9.09375 -8.75 9.09375 -9.5625 Z M 9.09375 -9.5625 "/>
</g>
<g id="glyph-0-1">
<path d="M 13.109375 -11.28125 C 13.734375 -11.28125 14.390625 -12.484375 14.390625 -13.015625 C 14.390625 -13.4375 14.203125 -13.875 13.734375 -13.875 L 2.78125 -13.875 C 2.203125 -13.875 1.578125 -12.859375 1.578125 -12.09375 C 1.578125 -11.671875 1.859375 -11.28125 2.296875 -11.28125 Z M 13.109375 -11.28125 "/>
</g>
<g id="glyph-0-2">
<path d="M 26.109375 -5.59375 L 26.109375 -3.4375 C 24.484375 -1.90625 21.671875 -1.625 19.078125 -1.625 C 10.5625 -1.625 7.40625 -9.328125 7.40625 -15.640625 C 7.40625 -24.015625 12.046875 -29.359375 18.515625 -29.359375 C 22.8125 -29.359375 26.5 -26.96875 28.65625 -23.34375 L 29.21875 -23.390625 C 29.359375 -25.828125 29.65625 -27.125 30.171875 -28.9375 L 30.078125 -29.078125 C 30.078125 -29.078125 25.015625 -31.46875 19.171875 -31.46875 C 10.953125 -31.46875 2.484375 -25.6875 2.484375 -15.15625 C 2.484375 -6.890625 8.375 0.484375 17.984375 0.484375 C 23.53125 0.484375 27.453125 -1.09375 30.703125 -3.828125 L 30.703125 -3.96875 C 30.28125 -4.453125 30.234375 -5.734375 30.234375 -6.265625 L 30.234375 -6.546875 C 30.234375 -10.140625 30.328125 -12.140625 30.703125 -14.6875 L 30.65625 -14.828125 C 30.65625 -14.828125 29.84375 -14.6875 28.171875 -14.6875 C 26.546875 -14.6875 25.734375 -14.828125 25.734375 -14.828125 L 25.640625 -14.6875 C 26.015625 -11.953125 26.109375 -9.1875 26.109375 -5.59375 Z M 26.109375 -5.59375 "/>
</g>
<g id="glyph-0-3">
<path d="M 7.984375 -15.96875 L 7.984375 -20.328125 C 7.984375 -20.65625 7.890625 -20.8125 7.703125 -20.8125 C 6.59375 -20.5625 4.875 -20.515625 3.828125 -20.65625 L 3.734375 -20.515625 C 4.0625 -18.40625 4.15625 -14.828125 4.15625 -11.234375 L 4.15625 -8.609375 C 4.15625 -5.015625 4.0625 -2.53125 3.734375 0 L 3.828125 0.140625 C 4.40625 0.046875 5.5 0 6.078125 0 C 6.640625 0 7.75 0.046875 8.328125 0.140625 L 8.421875 0 C 8.03125 -2.71875 7.984375 -4.96875 7.984375 -8.609375 L 7.984375 -11.09375 C 7.984375 -13.109375 8.5625 -14.25 9.609375 -15.828125 C 10.28125 -16.890625 11.390625 -17.5 12.296875 -17.5 C 13.25 -17.5 14.15625 -17.40625 14.78125 -16.828125 L 15.15625 -16.9375 L 16.125 -20.46875 L 15.921875 -20.65625 C 15.109375 -20.90625 15.0625 -21 14.203125 -21 C 11.625 -21 10.234375 -19.515625 8.125 -15.875 Z M 7.984375 -15.96875 "/>
</g>
<g id="glyph-0-4">
<path d="M 14.828125 -10.765625 L 14.640625 -5.0625 C 14.640625 -4.453125 14.34375 -4.109375 13.96875 -3.828125 C 12.625 -2.828125 11 -1.96875 9.5625 -1.96875 C 7.40625 -1.96875 6.03125 -3.390625 6.03125 -4.875 C 6.03125 -7.03125 7.03125 -8.65625 10.765625 -9.65625 Z M 14.828125 -2.296875 C 15.359375 -0.4375 16.78125 0.484375 18.5625 0.484375 C 19.75 0.484375 21.234375 0.1875 22.328125 -1 L 22 -2.15625 C 21.46875 -2.015625 21.046875 -1.90625 20.703125 -1.90625 C 20.234375 -1.90625 19.609375 -2.015625 19.28125 -2.296875 C 18.796875 -2.71875 18.515625 -3.875 18.515625 -6.03125 C 18.515625 -7.40625 18.65625 -12.71875 18.65625 -13.25 C 18.65625 -19.703125 14.390625 -21 10.765625 -21 C 7.125 -21 4.921875 -19.234375 3.734375 -18.21875 L 3.59375 -18.03125 L 4.40625 -14.828125 L 5.015625 -14.78125 C 6.359375 -16.9375 7.984375 -18.84375 10.28125 -18.84375 C 12 -18.84375 14.875 -18.609375 14.875 -13.203125 C 14.875 -12.859375 14.6875 -12.671875 14.546875 -12.625 L 10.09375 -11.625 C 5.21875 -10.515625 2.15625 -7.9375 2.15625 -4.6875 C 2.15625 -1.140625 4.59375 0.484375 8.125 0.484375 C 10.765625 0.484375 12.09375 -0.140625 14.640625 -2.296875 Z M 14.828125 -2.296875 "/>
</g>
<g id="glyph-0-5">
<path d="M 7.75 -14.0625 C 8.796875 -16.59375 11.625 -18.796875 13.484375 -18.796875 C 16.734375 -18.796875 18.40625 -15.828125 18.40625 -10.421875 C 18.40625 -6.5 17.3125 -1.4375 12.203125 -1.4375 C 11.4375 -1.4375 9.421875 -1.625 7.75 -3.59375 Z M 7.75 -16.828125 L 7.75 -20.328125 C 7.75 -20.65625 7.65625 -20.8125 7.46875 -20.8125 C 6.359375 -20.5625 4.640625 -20.515625 3.59375 -20.65625 L 3.484375 -20.515625 C 3.828125 -18.40625 3.921875 -14.828125 3.921875 -11.234375 L 3.921875 1.53125 C 3.921875 5.125 3.828125 8.5625 3.484375 11.09375 L 3.59375 11.234375 C 4.15625 11.140625 5.265625 11.09375 5.828125 11.09375 C 6.40625 11.09375 7.515625 11.140625 8.078125 11.234375 L 8.171875 11.09375 C 7.796875 8.375 7.75 5.171875 7.75 1.53125 L 7.75 -0.578125 C 8.984375 0.09375 10.765625 0.484375 12.484375 0.484375 C 18.796875 0.484375 22.625 -4.296875 22.625 -11.046875 C 22.625 -16.125 19.65625 -21 14.296875 -21 C 12.4375 -21 10.046875 -20.046875 7.84375 -16.6875 Z M 7.75 -16.828125 "/>
</g>
<g id="glyph-0-6">
<path d="M 8.125 -16.828125 L 8.125 -23.96875 C 8.125 -27.5 8.328125 -29.9375 8.5625 -32.90625 C 8.5625 -33.234375 8.421875 -33.390625 8.125 -33.390625 C 6.9375 -32.90625 5.890625 -32.578125 3.96875 -32.421875 L 3.875 -32.28125 C 4.203125 -30.234375 4.296875 -26.640625 4.296875 -23 L 4.296875 -8.609375 C 4.296875 -5.015625 4.203125 -2.671875 3.875 0 L 3.96875 0.140625 C 4.546875 0.046875 5.640625 0 6.21875 0 C 6.796875 0 7.890625 0.046875 8.46875 0.140625 L 8.5625 0 C 8.171875 -2.71875 8.125 -4.96875 8.125 -8.609375 L 8.125 -14.203125 C 10.5625 -17.078125 13.34375 -18.125 15.0625 -18.125 C 17.5 -18.125 18.515625 -17.171875 18.515625 -13.296875 L 18.515625 -8.609375 C 18.515625 -5.015625 18.46875 -2.53125 18.078125 0 L 18.171875 0.140625 C 18.75 0.046875 19.84375 0 20.421875 0 C 21 0 22.09375 0.046875 22.671875 0.140625 L 22.765625 0 C 22.390625 -2.71875 22.328125 -4.96875 22.328125 -8.609375 C 22.328125 -10.140625 22.4375 -11.90625 22.4375 -13.4375 C 22.4375 -18.40625 20.8125 -21 16.5 -21 C 14.6875 -21 11.28125 -20.28125 8.21875 -16.6875 Z M 8.125 -16.828125 "/>
</g>
<g id="glyph-0-7">
<path d="M 2.390625 -4.828125 L 1.578125 -0.8125 C 4.296875 0.140625 6.984375 0.484375 8.796875 0.484375 C 15.40625 0.484375 16.9375 -3.4375 16.9375 -6.078125 C 16.9375 -10 13.828125 -11.53125 10.421875 -12.34375 C 8.609375 -12.765625 5.984375 -13.671875 5.984375 -16.0625 C 5.984375 -18.03125 7.5625 -19.078125 9.609375 -19.078125 C 12.09375 -19.078125 13.625 -17.125 14.734375 -15.828125 L 15.40625 -15.875 L 16.359375 -19.421875 L 16.265625 -19.5625 C 14.875 -20.28125 12.25 -21 9.8125 -21 C 6.265625 -21 2.578125 -19.125 2.578125 -15.15625 C 2.578125 -11.328125 5.40625 -10.046875 8.328125 -9.28125 C 11.09375 -8.515625 13.15625 -7.75 13.15625 -5.40625 C 13.15625 -2.875 11.28125 -1.4375 8.75 -1.4375 C 6.453125 -1.4375 4.453125 -3.015625 3.109375 -4.875 Z M 2.390625 -4.828125 "/>
</g>
<g id="glyph-1-0">
<path d="M 5.78125 -0.8125 C 4.453125 -0.8125 2.71875 -1.984375 1.984375 -3.390625 L 1.75 -3.375 C 1.65625 -2.515625 1.390625 -1.625 1.1875 -0.90625 L 1.25 -0.84375 C 1.25 -0.84375 2.796875 0.234375 5.59375 0.234375 C 8.53125 0.234375 10.8125 -1.546875 10.8125 -4.328125 C 10.8125 -7.09375 8.46875 -8.359375 6.53125 -9.109375 C 5.3125 -9.5625 3.609375 -10.25 3.609375 -12.234375 C 3.609375 -13.09375 4.09375 -14.0625 4.703125 -14.390625 C 5.109375 -14.609375 5.625 -14.671875 6.171875 -14.671875 C 7.484375 -14.671875 8.78125 -13.65625 9.421875 -12.171875 L 9.65625 -12.1875 C 9.75 -13.046875 10 -13.859375 10.203125 -14.578125 L 10.15625 -14.65625 C 10.15625 -14.65625 9.15625 -15.734375 6.359375 -15.734375 C 5.71875 -15.734375 5 -15.609375 4.296875 -15.328125 C 2.890625 -14.71875 1.671875 -13.34375 1.671875 -11.59375 C 1.671875 -9.078125 3.796875 -7.90625 5.78125 -7.078125 C 7.34375 -6.4375 8.578125 -5.640625 8.578125 -3.609375 C 8.578125 -1.8125 7.203125 -0.8125 5.78125 -0.8125 Z M 5.78125 -0.8125 "/>
</g>
<g id="glyph-1-1">
<path d="M 3.875 -8.421875 L 3.875 -10.15625 C 3.875 -10.328125 3.828125 -10.40625 3.734375 -10.40625 C 3.171875 -10.28125 2.3125 -10.25 1.796875 -10.328125 L 1.75 -10.25 C 1.90625 -9.203125 1.953125 -7.40625 1.953125 -5.625 L 1.953125 -4.296875 C 1.953125 -2.515625 1.9375 -1.296875 1.75 0 L 1.796875 0.078125 C 2.078125 0.03125 2.625 0 2.921875 0 C 3.203125 0 3.75 0.03125 4.046875 0.078125 L 4.09375 0 C 3.890625 -1.359375 3.875 -2.484375 3.875 -4.296875 L 3.875 -7.203125 C 5 -8.34375 6.328125 -9.0625 7.171875 -9.0625 C 8.078125 -9.0625 8.75 -8.53125 8.75 -6.9375 L 8.75 -4.296875 C 8.75 -2.515625 8.71875 -1.296875 8.53125 0 L 8.578125 0.078125 C 8.875 0.03125 9.421875 0 9.703125 0 C 10 0 10.546875 0.03125 10.828125 0.078125 L 10.875 0 C 10.6875 -1.359375 10.65625 -2.484375 10.65625 -4.296875 L 10.65625 -6.71875 C 10.65625 -7.046875 10.65625 -7.34375 10.640625 -7.625 C 11.78125 -8.890625 12.734375 -9.0625 13.671875 -9.0625 C 14.96875 -9.0625 15.59375 -8.53125 15.59375 -6.9375 L 15.59375 -4.296875 C 15.59375 -2.515625 15.5625 -1.296875 15.375 0 L 15.421875 0.078125 C 15.703125 0.03125 16.25 0 16.546875 0 C 16.828125 0 17.375 0.03125 17.671875 0.078125 L 17.71875 0 C 17.515625 -1.359375 17.5 -2.484375 17.5 -4.296875 L 17.5 -6.6875 C 17.5 -8.828125 17.109375 -10.5 14.53125 -10.5 C 13.25 -10.5 11.859375 -10.046875 10.5 -8.609375 C 10.28125 -9.75 9.296875 -10.5 7.953125 -10.5 C 6.484375 -10.5 5.0625 -9.53125 3.9375 -8.34375 Z M 3.875 -8.421875 "/>
</g>
<g id="glyph-1-2">
<path d="M 7.40625 -5.375 L 7.3125 -2.53125 C 7.3125 -2.21875 7.171875 -2.0625 6.984375 -1.90625 C 6.3125 -1.40625 5.5 -0.984375 4.78125 -0.984375 C 3.703125 -0.984375 3.015625 -1.703125 3.015625 -2.4375 C 3.015625 -3.515625 3.515625 -4.328125 5.375 -4.828125 Z M 7.40625 -1.140625 C 7.671875 -0.21875 8.390625 0.234375 9.28125 0.234375 C 9.875 0.234375 10.609375 0.09375 11.171875 -0.5 L 11 -1.078125 C 10.734375 -1 10.515625 -0.953125 10.34375 -0.953125 C 10.109375 -0.953125 9.796875 -1 9.640625 -1.140625 C 9.390625 -1.359375 9.25 -1.9375 9.25 -3.015625 C 9.25 -3.703125 9.328125 -6.359375 9.328125 -6.625 C 9.328125 -9.84375 7.203125 -10.5 5.375 -10.5 C 3.5625 -10.5 2.46875 -9.609375 1.859375 -9.109375 L 1.796875 -9.015625 L 2.203125 -7.40625 L 2.515625 -7.390625 C 3.171875 -8.46875 4 -9.421875 5.140625 -9.421875 C 6 -9.421875 7.4375 -9.296875 7.4375 -6.59375 C 7.4375 -6.4375 7.34375 -6.328125 7.265625 -6.3125 L 5.046875 -5.8125 C 2.609375 -5.265625 1.078125 -3.96875 1.078125 -2.34375 C 1.078125 -0.578125 2.296875 0.234375 4.0625 0.234375 C 5.375 0.234375 6.046875 -0.078125 7.3125 -1.140625 Z M 7.40625 -1.140625 "/>
</g>
<g id="glyph-1-3">
<path d="M 4 -7.984375 L 4 -10.15625 C 4 -10.328125 3.9375 -10.40625 3.84375 -10.40625 C 3.296875 -10.28125 2.4375 -10.25 1.90625 -10.328125 L 1.859375 -10.25 C 2.03125 -9.203125 2.078125 -7.40625 2.078125 -5.625 L 2.078125 -4.296875 C 2.078125 -2.515625 2.03125 -1.265625 1.859375 0 L 1.90625 0.078125 C 2.203125 0.03125 2.75 0 3.03125 0 C 3.328125 0 3.875 0.03125 4.15625 0.078125 L 4.203125 0 C 4.015625 -1.359375 4 -2.484375 4 -4.296875 L 4 -5.546875 C 4 -6.546875 4.28125 -7.125 4.8125 -7.90625 C 5.140625 -8.4375 5.6875 -8.75 6.140625 -8.75 C 6.625 -8.75 7.078125 -8.703125 7.390625 -8.421875 L 7.578125 -8.46875 L 8.0625 -10.234375 L 7.953125 -10.328125 C 7.546875 -10.453125 7.53125 -10.5 7.09375 -10.5 C 5.8125 -10.5 5.109375 -9.75 4.0625 -7.9375 Z M 4 -7.984375 "/>
</g>
<g id="glyph-1-4">
<path d="M 2.265625 -10.25 C 1.765625 -10.25 1.265625 -10.25 0.984375 -10.296875 C 0.8125 -9.890625 0.671875 -9.6875 0.453125 -9.328125 L 0.578125 -9.15625 C 0.984375 -9.1875 1.71875 -9.1875 2.265625 -9.203125 L 2.265625 -5.921875 C 2.265625 -4.5 2.203125 -2.765625 2.203125 -2.0625 C 2.203125 -0.5 3.203125 0.234375 4.296875 0.234375 C 5.3125 0.234375 6.078125 0 7.078125 -0.640625 L 6.765625 -1.21875 C 6.046875 -0.984375 5.5 -0.953125 4.90625 -1.046875 C 4.328125 -1.125 4.109375 -1.703125 4.109375 -3.015625 C 4.109375 -3.734375 4.1875 -4.75 4.1875 -6.1875 L 4.1875 -9.203125 L 5.09375 -9.203125 C 5.671875 -9.203125 6.484375 -9.1875 6.8125 -9.15625 C 6.890625 -9.53125 6.953125 -9.78125 7.09375 -10.140625 L 6.984375 -10.296875 C 6.546875 -10.28125 5.859375 -10.25 5.3125 -10.25 L 4.1875 -10.25 C 4.1875 -12.03125 4.1875 -12.359375 4.296875 -13.75 C 4.296875 -13.90625 4.234375 -13.984375 4.09375 -13.984375 C 3.484375 -13.75 3.171875 -13.484375 2.421875 -13.390625 L 2.359375 -13.3125 C 2.3125 -12.484375 2.265625 -11.640625 2.265625 -10.25 Z M 2.265625 -10.25 "/>
</g>
</g>
<clipPath id="clip-0">
<path clip-rule="nonzero" d="M 5.976562 5.964844 L 55.785156 5.964844 L 55.785156 76.84375 L 5.976562 76.84375 Z M 5.976562 5.964844 "/>
</clipPath>
<clipPath id="clip-1">
<path clip-rule="nonzero" d="M 0.976562 3 L 50.785156 3 L 50.785156 52 L 0.976562 52 Z M 0.976562 3 "/>
</clipPath>
<clipPath id="clip-2">
<rect x="0" y="0" width="51" height="72"/>
</clipPath>
<g id="source-5" clip-path="url(#clip-2)">
<path fill="none" stroke-width="1.875" stroke-linecap="round" stroke-linejoin="round" stroke="rgb(0%, 0%, 0%)" stroke-opacity="1" stroke-miterlimit="4" d="M 17.249331 27.000196 C 13.374892 24.094367 11.796568 19.035165 13.327991 14.440896 C 14.859414 9.848667 19.155963 6.749116 23.999011 6.749116 C 28.844099 6.749116 33.140648 9.848667 34.672071 14.440896 C 36.203494 19.035165 34.62517 24.094367 30.750731 27.000196 C 28.874687 28.874201 28.499478 30.375036 28.499478 32.62425 L 28.499478 33.749876 C 28.499478 34.577782 27.828588 35.250711 27.000682 35.250711 L 20.99938 35.250711 C 20.171474 35.250711 19.500584 34.577782 19.500584 33.749876 L 19.500584 32.62425 C 19.500584 30.375036 19.125375 28.874201 17.249331 27.000196 Z M 17.249331 27.000196 " transform="matrix(1.9156, 0, 0, 1.9156, -20.0936, -8.6122)"/>
<path fill="none" stroke-width="1.875" stroke-linecap="round" stroke-linejoin="round" stroke="rgb(0%, 0%, 0%)" stroke-opacity="1" stroke-miterlimit="4" d="M 20.624171 37.875134 L 27.375891 37.875134 " transform="matrix(1.9156, 0, 0, 1.9156, -20.0936, -8.6122)"/>
<path fill="none" stroke-width="1.875" stroke-linecap="round" stroke-linejoin="round" stroke="rgb(0%, 0%, 0%)" stroke-opacity="1" stroke-miterlimit="4" d="M 22.125007 40.499556 L 25.875055 40.499556 " transform="matrix(1.9156, 0, 0, 1.9156, -20.0936, -8.6122)"/>
<path fill-rule="nonzero" fill="rgb(0%, 0%, 0%)" fill-opacity="1" stroke-width="1.125" stroke-linecap="butt" stroke-linejoin="miter" stroke="rgb(54.116821%, 56.861877%, 61.175537%)" stroke-opacity="1" stroke-miterlimit="4" d="M 19.875793 18.74968 L 23.999011 27.750613 " transform="matrix(1.9156, 0, 0, 1.9156, -20.0936, -8.6122)"/>
<path fill-rule="nonzero" fill="rgb(0%, 0%, 0%)" fill-opacity="1" stroke-width="1.125" stroke-linecap="butt" stroke-linejoin="miter" stroke="rgb(54.116821%, 56.861877%, 61.175537%)" stroke-opacity="1" stroke-miterlimit="4" d="M 28.124269 18.74968 L 23.999011 27.750613 " transform="matrix(1.9156, 0, 0, 1.9156, -20.0936, -8.6122)"/>
<g clip-path="url(#clip-1)">
<path fill="none" stroke-width="1.5" stroke-linecap="round" stroke-linejoin="miter" stroke="rgb(85.096741%, 46.665955%, 2.352905%)" stroke-opacity="1" stroke-dasharray="3 2.25" stroke-miterlimit="4" d="M 19.500584 14.624423 L 28.499478 14.624423 C 30.77724 14.624423 32.624736 16.473957 32.624736 18.74968 C 32.624736 21.027442 30.77724 22.874938 28.499478 22.874938 L 19.500584 22.874938 C 17.222822 22.874938 15.375326 21.027442 15.375326 18.74968 C 15.375326 16.473957 17.222822 14.624423 19.500584 14.624423 Z M 19.500584 14.624423 " transform="matrix(1.9156, 0, 0, 1.9156, -20.0936, -8.6122)"/>
</g>
<path fill-rule="nonzero" fill="rgb(85.096741%, 46.665955%, 2.352905%)" fill-opacity="1" d="M 22.574219 27.304688 C 22.574219 29.839844 20.515625 31.898438 17.980469 31.898438 C 15.441406 31.898438 13.386719 29.839844 13.386719 27.304688 C 13.386719 24.769531 15.441406 22.710938 17.980469 22.710938 C 20.515625 22.710938 22.574219 24.769531 22.574219 27.304688 Z M 22.574219 27.304688 "/>
<path fill-rule="nonzero" fill="rgb(85.096741%, 46.665955%, 2.352905%)" fill-opacity="1" d="M 38.375 27.304688 C 38.375 29.839844 36.320312 31.898438 33.78125 31.898438 C 31.246094 31.898438 29.1875 29.839844 29.1875 27.304688 C 29.1875 24.769531 31.246094 22.710938 33.78125 22.710938 C 36.320312 22.710938 38.375 24.769531 38.375 27.304688 Z M 38.375 27.304688 "/>
<path fill-rule="nonzero" fill="rgb(85.096741%, 46.665955%, 2.352905%)" fill-opacity="1" d="M 30.472656 44.546875 C 30.472656 47.082031 28.417969 49.140625 25.878906 49.140625 C 23.34375 49.140625 21.289062 47.082031 21.289062 44.546875 C 21.289062 42.007812 23.34375 39.953125 25.878906 39.953125 C 28.417969 39.953125 30.472656 42.007812 30.472656 44.546875 Z M 30.472656 44.546875 "/>
</g>
</defs>
<g clip-path="url(#clip-0)">
<use xlink:href="#source-5" transform="matrix(1, 0, 0, 1, 5, 5)"/>
</g>
<g fill="rgb(0%, 0%, 0%)" fill-opacity="1">
<use xlink:href="#glyph-0-0" x="61.851" y="64.938"/>
<use xlink:href="#glyph-0-1" x="87.578537" y="64.938"/>
<use xlink:href="#glyph-0-2" x="103.50283" y="64.938"/>
<use xlink:href="#glyph-0-3" x="137.790272" y="64.938"/>
<use xlink:href="#glyph-0-4" x="154.76662" y="64.938"/>
<use xlink:href="#glyph-0-5" x="177.768377" y="64.938"/>
<use xlink:href="#glyph-0-6" x="202.778603" y="64.938"/>
<use xlink:href="#glyph-0-7" x="229.032167" y="64.938"/>
</g>
<g fill="rgb(85.096741%, 46.665955%, 2.352905%)" fill-opacity="1">
<use xlink:href="#glyph-1-0" x="64.685" y="26.67"/>
<use xlink:href="#glyph-1-1" x="76.783612" y="26.67"/>
<use xlink:href="#glyph-1-2" x="96.079224" y="26.67"/>
<use xlink:href="#glyph-1-3" x="107.580078" y="26.67"/>
<use xlink:href="#glyph-1-4" x="116.068235" y="26.67"/>
</g>
</svg>
