<?xml version="1.0" encoding="UTF-8"?>
<svg xmlns="http://www.w3.org/2000/svg" xmlns:xlink="http://www.w3.org/1999/xlink" width="48pt" height="48pt" viewBox="0 0 48 48">
<path fill="none" stroke-width="1.875" stroke-linecap="round" stroke-linejoin="round" stroke="rgb(0%, 0%, 0%)" stroke-opacity="1" stroke-miterlimit="4" d="M 17.25 27 C 13.375 24.09375 11.796875 19.035156 13.328125 14.441406 C 14.859375 9.847656 19.15625 6.75 24 6.75 C 28.84375 6.75 33.140625 9.847656 34.671875 14.441406 C 36.203125 19.035156 34.625 24.09375 30.75 27 C 28.875 28.875 28.5 30.375 28.5 32.625 L 28.5 33.75 C 28.5 34.578125 27.828125 35.25 27 35.25 L 21 35.25 C 20.171875 35.25 19.5 34.578125 19.5 33.75 L 19.5 32.625 C 19.5 30.375 19.125 28.875 17.25 27 Z M 17.25 27 "/>
<path fill="none" stroke-width="1.875" stroke-linecap="round" stroke-linejoin="round" stroke="rgb(0%, 0%, 0%)" stroke-opacity="1" stroke-miterlimit="4" d="M 20.625 37.875 L 27.375 37.875 "/>
<path fill="none" stroke-width="1.875" stroke-linecap="round" stroke-linejoin="round" stroke="rgb(0%, 0%, 0%)" stroke-opacity="1" stroke-miterlimit="4" d="M 22.125 40.5 L 25.875 40.5 "/>
<path fill-rule="nonzero" fill="rgb(0%, 0%, 0%)" fill-opacity="1" stroke-width="1.125" stroke-linecap="butt" stroke-linejoin="miter" stroke="rgb(54.116821%, 56.861877%, 61.175537%)" stroke-opacity="1" stroke-miterlimit="4" d="M 19.875 18.75 L 24 27.75 "/>
<path fill-rule="nonzero" fill="rgb(0%, 0%, 0%)" fill-opacity="1" stroke-width="1.125" stroke-linecap="butt" stroke-linejoin="miter" stroke="rgb(54.116821%, 56.861877%, 61.175537%)" stroke-opacity="1" stroke-miterlimit="4" d="M 28.125 18.75 L 24 27.75 "/>
<path fill="none" stroke-width="1.5" stroke-linecap="round" stroke-linejoin="miter" stroke="rgb(85.096741%, 46.665955%, 2.352905%)" stroke-opacity="1" stroke-dasharray="3 2.25" stroke-miterlimit="4" d="M 19.5 14.625 L 28.5 14.625 C 30.777344 14.625 32.625 16.472656 32.625 18.75 C 32.625 21.027344 30.777344 22.875 28.5 22.875 L 19.5 22.875 C 17.222656 22.875 15.375 21.027344 15.375 18.75 C 15.375 16.472656 17.222656 14.625 19.5 14.625 Z M 19.5 14.625 "/>
<path fill-rule="nonzero" fill="rgb(85.096741%, 46.665955%, 2.352905%)" fill-opacity="1" d="M 22.273438 18.75 C 22.273438 20.074219 21.199219 21.148438 19.875 21.148438 C 18.550781 21.148438 17.476562 20.074219 17.476562 18.75 C 17.476562 17.425781 18.550781 16.351562 19.875 16.351562 C 21.199219 16.351562 22.273438 17.425781 22.273438 18.75 Z M 22.273438 18.75 "/>
<path fill-rule="nonzero" fill="rgb(85.096741%, 46.665955%, 2.352905%)" fill-opacity="1" d="M 30.523438 18.75 C 30.523438 20.074219 29.449219 21.148438 28.125 21.148438 C 26.800781 21.148438 25.726562 20.074219 25.726562 18.75 C 25.726562 17.425781 26.800781 16.351562 28.125 16.351562 C 29.449219 16.351562 30.523438 17.425781 30.523438 18.75 Z M 30.523438 18.75 "/>
<path fill-rule="nonzero" fill="rgb(85.096741%, 46.665955%, 2.352905%)" fill-opacity="1" d="M 26.398438 27.75 C 26.398438 29.074219 25.324219 30.148438 24 30.148438 C 22.675781 30.148438 21.601562 29.074219 21.601562 27.75 C 21.601562 26.425781 22.675781 25.351562 24 25.351562 C 25.324219 25.351562 26.398438 26.425781 26.398438 27.75 Z M 26.398438 27.75 "/>
</svg>
