<svg width="548" height="282" xmlns="http://www.w3.org/2000/svg" xmlns:xlink="http://www.w3.org/1999/xlink" xml:space="preserve" overflow="hidden"><g transform="translate(-380 -180)"><g><g><g><g><path d="M59.1755 54.4853 59.1755 248.396C59.1755 254.436 64.0695 259.33 70.0984 259.33L317.125 259.33C323.164 259.33 328.058 254.436 328.058 248.396L328.058 54.4853C328.058 48.4564 323.164 43.5625 317.125 43.5625L70.0984 43.5625C64.0695 43.5625 59.1755 48.4564 59.1755 54.4853Z" fill="#009900" fill-rule="nonzero" fill-opacity="0.15" transform="matrix(1 0 0 1.00476 381.384 181)"/><path d="M80.6999 77.7016 80.6999 80.4321C80.6999 86.4612 85.5938 91.3549 91.6227 91.3549L314.394 91.3549C320.434 91.3549 325.327 86.4612 325.327 80.4321L325.327 77.7016C325.327 71.6725 320.434 66.7788 314.394 66.7788L91.6227 66.7788C85.5938 66.7788 80.6999 71.6725 80.6999 77.7016Z" fill="#009900" fill-rule="nonzero" fill-opacity="0.25" transform="matrix(1 0 0 1.00476 381.384 181)"/><path d="M80.6999 124.134 80.6999 245.666C80.6999 251.705 85.5938 256.599 91.6227 256.599L314.394 256.599C320.434 256.599 325.327 251.705 325.327 245.666L325.327 124.134C325.327 118.094 320.434 113.211 314.394 113.211L91.6227 113.211C85.5938 113.211 80.6999 118.094 80.6999 124.134Z" fill="#009900" fill-rule="nonzero" fill-opacity="0.25" transform="matrix(1 0 0 1.00476 381.384 181)"/><path d="M101.014 193.772 101.014 196.503C101.014 202.542 105.908 207.436 111.947 207.436L311.664 207.436C317.703 207.436 322.597 202.542 322.597 196.503L322.597 193.772C322.597 187.743 317.703 182.849 311.664 182.849L111.947 182.849C105.908 182.849 101.014 187.743 101.014 193.772Z" fill="#009900" fill-rule="nonzero" fill-opacity="0.35" transform="matrix(1 0 0 1.00476 381.384 181)"/><path d="M101.014 240.204 101.014 242.935C101.014 248.975 105.908 253.858 111.947 253.858L311.664 253.858C317.703 253.858 322.597 248.975 322.597 242.935L322.597 240.204C322.597 234.175 317.703 229.281 311.664 229.281L111.947 229.281C105.908 229.281 101.014 234.175 101.014 240.204Z" fill="#009900" fill-rule="nonzero" fill-opacity="0.35" transform="matrix(1 0 0 1.00476 381.384 181)"/><path d="M381.454-29.9076 365.069-29.9076C362.051-29.9076 359.608-32.3493 359.608-35.369 359.608-38.3889 362.051-40.8304 365.069-40.8304L381.454-40.8304C384.473-40.8304 386.915-38.3889 386.915-35.369 386.915-32.3493 384.473-29.9076 381.454-29.9076Z" stroke="#000000" stroke-width="1.09245" stroke-linecap="butt" stroke-linejoin="miter" stroke-miterlimit="10" stroke-opacity="1" fill="#CCEACC" fill-rule="nonzero" fill-opacity="1" transform="matrix(1 0 0 -1.00476 422.352 194.72)"/><path d="M353.108-53.1239 311.483-53.1239C308.465-53.1239 306.022-55.5654 306.022-58.5853L306.022-77.7C306.022-80.7199 308.465-83.1614 311.483-83.1614L353.108-83.1614C356.129-83.1614 358.569-80.7199 358.569-77.7L358.569-58.5853C358.569-55.5654 356.129-53.1239 353.108-53.1239Z" stroke="#000000" stroke-width="1.09245" stroke-linecap="butt" stroke-linejoin="miter" stroke-miterlimit="10" stroke-opacity="1" fill="#99D699" fill-rule="nonzero" fill-opacity="1" transform="matrix(1 0 0 -1.00476 422.352 194.72)"/><path d="M4.1121-5.4828 4.75463-3.7266 2.9984-1.28503C2.78422-1.02802 2.57006-0.942355 2.44156-0.942355 2.27022-0.942355 2.09888-0.98519 1.92755-1.07086 1.75621-1.11369 1.58487-1.15653 1.3707-1.15653 0.942355-1.15653 0.642515-0.899521 0.642515-0.514012 0.642515-0.0428343 1.32786 0.171337 1.75621 0.171337 2.39872 0.171337 2.86991-0.0856687 3.7266-1.19936L5.0116-2.9984 5.7398-0.813852C5.99681-0.0856687 6.16814 0.171337 6.85349 0.171337 7.53884 0.171337 8.43835-0.171337 9.03806-1.07086 8.95236-1.2422 8.78103-1.3707 8.56687-1.41353 8.05286-0.813852 7.8387-0.685349 7.62451-0.685349 7.45317-0.685349 7.32469-0.942355 7.15335-1.32786L6.12532-4.19776 7.62451-6.16814C7.92434-6.59649 8.35271-6.68216 8.4812-6.68216 8.65254-6.68216 8.86672-6.59649 9.08088-6.51082 9.16655-6.3823 9.46638-6.29666 9.68056-6.29666 9.93757-6.29666 10.2802-6.68216 10.2802-7.06765 10.2802-7.53884 9.80905-7.79585 9.33789-7.79585 8.39553-7.79585 7.753-7.49602 6.85349-6.21097L5.86829-4.96878 5.35428-6.51082C5.0116-7.41033 4.84027-7.79585 4.32625-7.79585 3.85509-7.79585 2.44156-7.06765 1.75621-6.59649 1.75621-6.3823 1.84188-6.16814 1.97038-6.03963 2.22739-6.12532 2.86991-6.42515 3.25541-6.42515 3.46957-6.42515 3.68375-6.3823 3.76942-6.21097 3.85509-6.08248 3.98358-5.78265 4.1121-5.4828Z" fill="#000000" fill-rule="nonzero" fill-opacity="1" transform="matrix(1 0 0 1.00476 733.3 264.983)"/><path d="M9.80905-5.86829 9.80905-6.85349 0.728184-6.85349 0.728184-5.86829ZM9.80905-2.27022 9.80905-3.25541 0.728184-3.25541 0.728184-2.27022Z" fill="#000000" fill-rule="nonzero" fill-opacity="1" transform="matrix(1 0 0 1.00476 749.052 264.983)"/><path d="M8.30986-6.33948 7.36751-2.01321C7.1105-1.75621 5.95399-0.813852 5.0116-0.813852 4.58329-0.813852 4.1121-0.813852 4.1121-1.75621 4.1121-1.97038 4.19776-2.22739 4.24061-2.48439L4.92596-5.56846C5.14012-6.12532 5.43997-6.85349 5.43997-7.19617 5.43997-7.53884 5.31146-7.79585 4.75463-7.79585 3.76942-7.79585 2.65573-7.19617 1.75621-6.12532 1.79904-5.99681 1.88471-5.82547 2.14172-5.82547 2.65573-6.3823 3.29823-6.63934 3.46957-6.63934 3.59808-6.63934 3.6409-6.55364 3.6409-6.33948 3.6409-6.16814 3.51242-5.86829 3.38393-5.39713L2.69856-2.22739C2.65573-1.97038 2.57006-1.67054 2.57006-1.3707 2.57006-0.514012 2.86991 0.171337 4.28343 0.171337 5.05445 0.171337 5.99681-0.0856687 7.23899-1.11369 6.81067 1.97038 5.99681 3.51242 4.32625 3.51242 3.08407 3.51242 3.51242 2.57006 2.57006 2.57006 2.35589 2.57006 1.84188 2.82707 1.84188 3.29823 1.84188 4.02643 3.38393 4.15492 4.06928 4.15492 4.75463 4.15492 5.65413 3.98358 6.51082 3.08407 7.62451 2.01321 8.09568 1.32786 8.82387-1.79904L9.80905-6.25381C9.89475-6.55364 10.0661-7.1105 10.0661-7.32469 10.0661-7.62451 9.8519-7.79585 9.2094-7.79585 8.4812-7.79585 8.43835-7.02483 8.30986-6.33948Z" fill="#000000" fill-rule="nonzero" fill-opacity="1" transform="matrix(1 0 0 1.00476 764.845 264.983)"/><path d="M435.435-102.287 393.029-102.287C390.01-102.287 387.568-104.729 387.568-107.748L387.568-126.863C387.568-129.883 390.01-132.325 393.029-132.325L435.435-132.325C438.445-132.325 440.896-129.883 440.896-126.863L440.896-107.748C440.896-104.729 438.445-102.287 435.435-102.287Z" stroke="#000000" stroke-width="1.09245" stroke-linecap="butt" stroke-linejoin="miter" stroke-miterlimit="10" stroke-opacity="1" fill="#99D699" fill-rule="nonzero" fill-opacity="1" transform="matrix(1 0 0 -1.00476 422.352 194.72)"/><path d="M4.1121-5.4828 4.75463-3.7266 2.9984-1.28503C2.78422-1.02802 2.57006-0.942355 2.44156-0.942355 2.27022-0.942355 2.09888-0.98519 1.92755-1.07086 1.75621-1.11369 1.58487-1.15653 1.3707-1.15653 0.942355-1.15653 0.642515-0.899521 0.642515-0.514012 0.642515-0.0428343 1.32786 0.171337 1.75621 0.171337 2.39872 0.171337 2.86991-0.0856687 3.7266-1.19936L5.0116-2.9984 5.7398-0.813852C5.99681-0.0856687 6.16814 0.171337 6.85349 0.171337 7.53884 0.171337 8.43835-0.171337 9.03806-1.07086 8.95236-1.2422 8.78103-1.3707 8.56687-1.41353 8.05286-0.813852 7.8387-0.685349 7.62451-0.685349 7.45317-0.685349 7.32469-0.942355 7.15335-1.32786L6.12532-4.19776 7.62451-6.16814C7.92434-6.59649 8.35271-6.68216 8.4812-6.68216 8.65254-6.68216 8.86672-6.59649 9.08088-6.51082 9.16655-6.3823 9.46638-6.29666 9.68056-6.29666 9.93757-6.29666 10.2802-6.68216 10.2802-7.06765 10.2802-7.53884 9.80905-7.79585 9.33789-7.79585 8.39553-7.79585 7.753-7.49602 6.85349-6.21097L5.86829-4.96878 5.35428-6.51082C5.0116-7.41033 4.84027-7.79585 4.32625-7.79585 3.85509-7.79585 2.44156-7.06765 1.75621-6.59649 1.75621-6.3823 1.84188-6.16814 1.97038-6.03963 2.22739-6.12532 2.86991-6.42515 3.25541-6.42515 3.46957-6.42515 3.68375-6.3823 3.76942-6.21097 3.85509-6.08248 3.98358-5.78265 4.1121-5.4828Z" fill="#000000" fill-rule="nonzero" fill-opacity="1" transform="matrix(1 0 0 1.00476 814.843 315.604)"/><path d="M10.1946-2.27022 10.1946-3.25541 5.65413-3.25541 6.68216-5.86829 10.1946-5.86829 10.1946-6.85349 7.06765-6.85349 8.35271-10.0232 7.28184-10.0232 6.03963-6.85349 1.11369-6.85349 1.11369-5.86829 5.61131-5.86829 4.58329-3.25541 1.11369-3.25541 1.11369-2.27022 4.19776-2.27022 2.91273 0.942355 3.98358 0.942355 5.22579-2.27022Z" fill="#000000" fill-rule="nonzero" fill-opacity="1" transform="matrix(1 0 0 1.00476 830.595 315.604)"/><path d="M8.30986-6.33948 7.36751-2.01321C7.1105-1.75621 5.95399-0.813852 5.0116-0.813852 4.58329-0.813852 4.1121-0.813852 4.1121-1.75621 4.1121-1.97038 4.19776-2.22739 4.24061-2.48439L4.92596-5.56846C5.14012-6.12532 5.43997-6.85349 5.43997-7.19617 5.43997-7.53884 5.31146-7.79585 4.75463-7.79585 3.76942-7.79585 2.65573-7.19617 1.75621-6.12532 1.79904-5.99681 1.88471-5.82547 2.14172-5.82547 2.65573-6.3823 3.29823-6.63934 3.46957-6.63934 3.59808-6.63934 3.6409-6.55364 3.6409-6.33948 3.6409-6.16814 3.51242-5.86829 3.38393-5.39713L2.69856-2.22739C2.65573-1.97038 2.57006-1.67054 2.57006-1.3707 2.57006-0.514012 2.86991 0.171337 4.28343 0.171337 5.05445 0.171337 5.99681-0.0856687 7.23899-1.11369 6.81067 1.97038 5.99681 3.51242 4.32625 3.51242 3.08407 3.51242 3.51242 2.57006 2.57006 2.57006 2.35589 2.57006 1.84188 2.82707 1.84188 3.29823 1.84188 4.02643 3.38393 4.15492 4.06928 4.15492 4.75463 4.15492 5.65413 3.98358 6.51082 3.08407 7.62451 2.01321 8.09568 1.32786 8.82387-1.79904L9.80905-6.25381C9.89475-6.55364 10.0661-7.1105 10.0661-7.32469 10.0661-7.62451 9.8519-7.79585 9.2094-7.79585 8.4812-7.79585 8.43835-7.02483 8.30986-6.33948Z" fill="#000000" fill-rule="nonzero" fill-opacity="1" transform="matrix(1 0 0 1.00476 847.172 315.604)"/><path d="M404.167-167.834 342.357-167.834C339.347-167.834 336.896-170.276 336.896-173.296L336.896-192.41C336.896-195.43 339.347-197.872 342.357-197.872L404.167-197.872C407.188-197.872 409.628-195.43 409.628-192.41L409.628-173.296C409.628-170.276 407.188-167.834 404.167-167.834Z" stroke="#000000" stroke-width="1.09245" stroke-linecap="butt" stroke-linejoin="miter" stroke-miterlimit="10" stroke-opacity="1" fill="#66C166" fill-rule="nonzero" fill-opacity="1" transform="matrix(1 0 0 -1.00476 422.352 194.72)"/><path d="M6.76783-3.42675C5.82547-1.84188 4.71178-0.642515 3.94076-0.642515 3.34108-0.642515 3.21259-1.67054 3.21259-2.65573 3.21259-4.54044 4.66893-7.15335 6.468-7.15335 7.19617-7.15335 7.53884-6.21097 7.53884-5.61131 7.53884-5.18294 7.32469-4.3691 6.76783-3.42675ZM6.68216-2.05605 6.59649-1.58487C6.468-1.15653 6.3823-0.813852 6.3823-0.599681 6.3823-0.29984 6.51082 0.171337 7.15335 0.171337 8.39553 0.171337 9.16655-0.514012 9.68056-1.54204 9.59489-1.71337 9.50922-1.84188 9.25222-1.84188 8.7382-1.15653 8.39553-0.899521 8.22419-0.899521 8.13852-0.899521 7.96719-0.942355 7.96719-1.11369 7.96719-1.28503 8.09568-1.79904 8.13852-2.14172L10.1946-10.3231C10.4516-11.4796 10.6657-12.2078 10.6657-12.2078 10.6657-12.3363 10.6229-12.3791 10.4088-12.3791 9.89475-12.2078 8.52405-11.9508 7.753-11.9079L7.66736-11.4368C7.66736-11.3939 7.71018-11.3511 7.79585-11.3511L8.39553-11.3511C8.65254-11.3511 8.78103-11.2226 8.78103-10.8371 8.78103-10.6229 8.7382-10.3231 8.65254-9.93757L7.96719-6.81067 7.92434-6.81067C7.71018-7.32469 7.1105-7.79585 6.3823-7.79585 4.24061-7.79585 1.54204-5.14012 1.54204-2.35589 1.54204-1.41353 1.84188 0.171337 3.55526 0.171337 4.54044 0.171337 5.4828-0.514012 6.63934-2.09888Z" fill="#000000" fill-rule="nonzero" fill-opacity="1" transform="matrix(1 0 0 1.00476 763.82 382.645)"/><path d="M4.1121-5.4828 4.75463-3.7266 2.9984-1.28503C2.78422-1.02802 2.57006-0.942355 2.44156-0.942355 2.27022-0.942355 2.09888-0.98519 1.92755-1.07086 1.75621-1.11369 1.58487-1.15653 1.3707-1.15653 0.942355-1.15653 0.642515-0.899521 0.642515-0.514012 0.642515-0.0428343 1.32786 0.171337 1.75621 0.171337 2.39872 0.171337 2.86991-0.0856687 3.7266-1.19936L5.0116-2.9984 5.7398-0.813852C5.99681-0.0856687 6.16814 0.171337 6.85349 0.171337 7.53884 0.171337 8.43835-0.171337 9.03806-1.07086 8.95236-1.2422 8.78103-1.3707 8.56687-1.41353 8.05286-0.813852 7.8387-0.685349 7.62451-0.685349 7.45317-0.685349 7.32469-0.942355 7.15335-1.32786L6.12532-4.19776 7.62451-6.16814C7.92434-6.59649 8.35271-6.68216 8.4812-6.68216 8.65254-6.68216 8.86672-6.59649 9.08088-6.51082 9.16655-6.3823 9.46638-6.29666 9.68056-6.29666 9.93757-6.29666 10.2802-6.68216 10.2802-7.06765 10.2802-7.53884 9.80905-7.79585 9.33789-7.79585 8.39553-7.79585 7.753-7.49602 6.85349-6.21097L5.86829-4.96878 5.35428-6.51082C5.0116-7.41033 4.84027-7.79585 4.32625-7.79585 3.85509-7.79585 2.44156-7.06765 1.75621-6.59649 1.75621-6.3823 1.84188-6.16814 1.97038-6.03963 2.22739-6.12532 2.86991-6.42515 3.25541-6.42515 3.46957-6.42515 3.68375-6.3823 3.76942-6.21097 3.85509-6.08248 3.98358-5.78265 4.1121-5.4828Z" fill="#000000" fill-rule="nonzero" fill-opacity="1" transform="matrix(1 0 0 1.00476 774.259 382.645)"/><path d="M9.80905-5.86829 9.80905-6.85349 0.728184-6.85349 0.728184-5.86829ZM9.80905-2.27022 9.80905-3.25541 0.728184-3.25541 0.728184-2.27022Z" fill="#000000" fill-rule="nonzero" fill-opacity="1" transform="matrix(1 0 0 1.00476 790.02 382.645)"/><path d="M6.76783-3.42675C5.82547-1.84188 4.71178-0.642515 3.94076-0.642515 3.34108-0.642515 3.21259-1.67054 3.21259-2.65573 3.21259-4.54044 4.66893-7.15335 6.468-7.15335 7.19617-7.15335 7.53884-6.21097 7.53884-5.61131 7.53884-5.18294 7.32469-4.3691 6.76783-3.42675ZM6.68216-2.05605 6.59649-1.58487C6.468-1.15653 6.3823-0.813852 6.3823-0.599681 6.3823-0.29984 6.51082 0.171337 7.15335 0.171337 8.39553 0.171337 9.16655-0.514012 9.68056-1.54204 9.59489-1.71337 9.50922-1.84188 9.25222-1.84188 8.7382-1.15653 8.39553-0.899521 8.22419-0.899521 8.13852-0.899521 7.96719-0.942355 7.96719-1.11369 7.96719-1.28503 8.09568-1.79904 8.13852-2.14172L10.1946-10.3231C10.4516-11.4796 10.6657-12.2078 10.6657-12.2078 10.6657-12.3363 10.6229-12.3791 10.4088-12.3791 9.89475-12.2078 8.52405-11.9508 7.753-11.9079L7.66736-11.4368C7.66736-11.3939 7.71018-11.3511 7.79585-11.3511L8.39553-11.3511C8.65254-11.3511 8.78103-11.2226 8.78103-10.8371 8.78103-10.6229 8.7382-10.3231 8.65254-9.93757L7.96719-6.81067 7.92434-6.81067C7.71018-7.32469 7.1105-7.79585 6.3823-7.79585 4.24061-7.79585 1.54204-5.14012 1.54204-2.35589 1.54204-1.41353 1.84188 0.171337 3.55526 0.171337 4.54044 0.171337 5.4828-0.514012 6.63934-2.09888Z" fill="#000000" fill-rule="nonzero" fill-opacity="1" transform="matrix(1 0 0 1.00476 804.571 382.645)"/><path d="M8.30986-6.33948 7.36751-2.01321C7.1105-1.75621 5.95399-0.813852 5.0116-0.813852 4.58329-0.813852 4.1121-0.813852 4.1121-1.75621 4.1121-1.97038 4.19776-2.22739 4.24061-2.48439L4.92596-5.56846C5.14012-6.12532 5.43997-6.85349 5.43997-7.19617 5.43997-7.53884 5.31146-7.79585 4.75463-7.79585 3.76942-7.79585 2.65573-7.19617 1.75621-6.12532 1.79904-5.99681 1.88471-5.82547 2.14172-5.82547 2.65573-6.3823 3.29823-6.63934 3.46957-6.63934 3.59808-6.63934 3.6409-6.55364 3.6409-6.33948 3.6409-6.16814 3.51242-5.86829 3.38393-5.39713L2.69856-2.22739C2.65573-1.97038 2.57006-1.67054 2.57006-1.3707 2.57006-0.514012 2.86991 0.171337 4.28343 0.171337 5.05445 0.171337 5.99681-0.0856687 7.23899-1.11369 6.81067 1.97038 5.99681 3.51242 4.32625 3.51242 3.08407 3.51242 3.51242 2.57006 2.57006 2.57006 2.35589 2.57006 1.84188 2.82707 1.84188 3.29823 1.84188 4.02643 3.38393 4.15492 4.06928 4.15492 4.75463 4.15492 5.65413 3.98358 6.51082 3.08407 7.62451 2.01321 8.09568 1.32786 8.82387-1.79904L9.80905-6.25381C9.89475-6.55364 10.0661-7.1105 10.0661-7.32469 10.0661-7.62451 9.8519-7.79585 9.2094-7.79585 8.4812-7.79585 8.43835-7.02483 8.30986-6.33948Z" fill="#000000" fill-rule="nonzero" fill-opacity="1" transform="matrix(1 0 0 1.00476 815.915 382.645)"/><path d="M527.461 227.921 464.87 227.921C461.862 227.921 459.409 230.363 459.409 233.383L459.409 252.498C459.409 255.517 461.862 257.959 464.87 257.959L527.461 257.959C530.482 257.959 532.922 255.517 532.922 252.498L532.922 233.383C532.922 230.363 530.482 227.921 527.461 227.921Z" fill="#66C166" fill-rule="nonzero" fill-opacity="1" transform="matrix(1 0 0 1.00476 381.384 181)"/><g><path d="M486.494-214.267 423.902-214.267C420.895-214.267 418.441-216.708 418.441-219.728L418.441-238.843C418.441-241.863 420.895-244.304 423.902-244.304L486.494-244.304C489.515-244.304 491.955-241.863 491.955-238.843L491.955-219.728C491.955-216.708 489.515-214.267 486.494-214.267Z" stroke="#000000" stroke-width="1.09245" stroke-linecap="butt" stroke-linejoin="miter" stroke-miterlimit="10" stroke-opacity="1" fill="none" fill-rule="nonzero" transform="matrix(1 0 0 -1.00476 422.352 194.72)"/></g><path d="M6.76783-3.42675C5.82547-1.84188 4.71178-0.642515 3.94076-0.642515 3.34108-0.642515 3.21259-1.67054 3.21259-2.65573 3.21259-4.54044 4.66893-7.15335 6.468-7.15335 7.19617-7.15335 7.53884-6.21097 7.53884-5.61131 7.53884-5.18294 7.32469-4.3691 6.76783-3.42675ZM6.68216-2.05605 6.59649-1.58487C6.468-1.15653 6.3823-0.813852 6.3823-0.599681 6.3823-0.29984 6.51082 0.171337 7.15335 0.171337 8.39553 0.171337 9.16655-0.514012 9.68056-1.54204 9.59489-1.71337 9.50922-1.84188 9.25222-1.84188 8.7382-1.15653 8.39553-0.899521 8.22419-0.899521 8.13852-0.899521 7.96719-0.942355 7.96719-1.11369 7.96719-1.28503 8.09568-1.79904 8.13852-2.14172L10.1946-10.3231C10.4516-11.4796 10.6657-12.2078 10.6657-12.2078 10.6657-12.3363 10.6229-12.3791 10.4088-12.3791 9.89475-12.2078 8.52405-11.9508 7.753-11.9079L7.66736-11.4368C7.66736-11.3939 7.71018-11.3511 7.79585-11.3511L8.39553-11.3511C8.65254-11.3511 8.78103-11.2226 8.78103-10.8371 8.78103-10.6229 8.7382-10.3231 8.65254-9.93757L7.96719-6.81067 7.92434-6.81067C7.71018-7.32469 7.1105-7.79585 6.3823-7.79585 4.24061-7.79585 1.54204-5.14012 1.54204-2.35589 1.54204-1.41353 1.84188 0.171337 3.55526 0.171337 4.54044 0.171337 5.4828-0.514012 6.63934-2.09888Z" fill="#000000" fill-rule="nonzero" fill-opacity="1" transform="matrix(1 0 0 1.00476 845.363 429.297)"/><path d="M4.1121-5.4828 4.75463-3.7266 2.9984-1.28503C2.78422-1.02802 2.57006-0.942355 2.44156-0.942355 2.27022-0.942355 2.09888-0.98519 1.92755-1.07086 1.75621-1.11369 1.58487-1.15653 1.3707-1.15653 0.942355-1.15653 0.642515-0.899521 0.642515-0.514012 0.642515-0.0428343 1.32786 0.171337 1.75621 0.171337 2.39872 0.171337 2.86991-0.0856687 3.7266-1.19936L5.0116-2.9984 5.7398-0.813852C5.99681-0.0856687 6.16814 0.171337 6.85349 0.171337 7.53884 0.171337 8.43835-0.171337 9.03806-1.07086 8.95236-1.2422 8.78103-1.3707 8.56687-1.41353 8.05286-0.813852 7.8387-0.685349 7.62451-0.685349 7.45317-0.685349 7.32469-0.942355 7.15335-1.32786L6.12532-4.19776 7.62451-6.16814C7.92434-6.59649 8.35271-6.68216 8.4812-6.68216 8.65254-6.68216 8.86672-6.59649 9.08088-6.51082 9.16655-6.3823 9.46638-6.29666 9.68056-6.29666 9.93757-6.29666 10.2802-6.68216 10.2802-7.06765 10.2802-7.53884 9.80905-7.79585 9.33789-7.79585 8.39553-7.79585 7.753-7.49602 6.85349-6.21097L5.86829-4.96878 5.35428-6.51082C5.0116-7.41033 4.84027-7.79585 4.32625-7.79585 3.85509-7.79585 2.44156-7.06765 1.75621-6.59649 1.75621-6.3823 1.84188-6.16814 1.97038-6.03963 2.22739-6.12532 2.86991-6.42515 3.25541-6.42515 3.46957-6.42515 3.68375-6.3823 3.76942-6.21097 3.85509-6.08248 3.98358-5.78265 4.1121-5.4828Z" fill="#000000" fill-rule="nonzero" fill-opacity="1" transform="matrix(1 0 0 1.00476 855.819 429.297)"/><path d="M10.1946-2.27022 10.1946-3.25541 5.65413-3.25541 6.68216-5.86829 10.1946-5.86829 10.1946-6.85349 7.06765-6.85349 8.35271-10.0232 7.28184-10.0232 6.03963-6.85349 1.11369-6.85349 1.11369-5.86829 5.61131-5.86829 4.58329-3.25541 1.11369-3.25541 1.11369-2.27022 4.19776-2.27022 2.91273 0.942355 3.98358 0.942355 5.22579-2.27022Z" fill="#000000" fill-rule="nonzero" fill-opacity="1" transform="matrix(1 0 0 1.00476 871.562 429.297)"/><path d="M6.76783-3.42675C5.82547-1.84188 4.71178-0.642515 3.94076-0.642515 3.34108-0.642515 3.21259-1.67054 3.21259-2.65573 3.21259-4.54044 4.66893-7.15335 6.468-7.15335 7.19617-7.15335 7.53884-6.21097 7.53884-5.61131 7.53884-5.18294 7.32469-4.3691 6.76783-3.42675ZM6.68216-2.05605 6.59649-1.58487C6.468-1.15653 6.3823-0.813852 6.3823-0.599681 6.3823-0.29984 6.51082 0.171337 7.15335 0.171337 8.39553 0.171337 9.16655-0.514012 9.68056-1.54204 9.59489-1.71337 9.50922-1.84188 9.25222-1.84188 8.7382-1.15653 8.39553-0.899521 8.22419-0.899521 8.13852-0.899521 7.96719-0.942355 7.96719-1.11369 7.96719-1.28503 8.09568-1.79904 8.13852-2.14172L10.1946-10.3231C10.4516-11.4796 10.6657-12.2078 10.6657-12.2078 10.6657-12.3363 10.6229-12.3791 10.4088-12.3791 9.89475-12.2078 8.52405-11.9508 7.753-11.9079L7.66736-11.4368C7.66736-11.3939 7.71018-11.3511 7.79585-11.3511L8.39553-11.3511C8.65254-11.3511 8.78103-11.2226 8.78103-10.8371 8.78103-10.6229 8.7382-10.3231 8.65254-9.93757L7.96719-6.81067 7.92434-6.81067C7.71018-7.32469 7.1105-7.79585 6.3823-7.79585 4.24061-7.79585 1.54204-5.14012 1.54204-2.35589 1.54204-1.41353 1.84188 0.171337 3.55526 0.171337 4.54044 0.171337 5.4828-0.514012 6.63934-2.09888Z" fill="#000000" fill-rule="nonzero" fill-opacity="1" transform="matrix(1 0 0 1.00476 886.895 429.297)"/><path d="M8.30986-6.33948 7.36751-2.01321C7.1105-1.75621 5.95399-0.813852 5.0116-0.813852 4.58329-0.813852 4.1121-0.813852 4.1121-1.75621 4.1121-1.97038 4.19776-2.22739 4.24061-2.48439L4.92596-5.56846C5.14012-6.12532 5.43997-6.85349 5.43997-7.19617 5.43997-7.53884 5.31146-7.79585 4.75463-7.79585 3.76942-7.79585 2.65573-7.19617 1.75621-6.12532 1.79904-5.99681 1.88471-5.82547 2.14172-5.82547 2.65573-6.3823 3.29823-6.63934 3.46957-6.63934 3.59808-6.63934 3.6409-6.55364 3.6409-6.33948 3.6409-6.16814 3.51242-5.86829 3.38393-5.39713L2.69856-2.22739C2.65573-1.97038 2.57006-1.67054 2.57006-1.3707 2.57006-0.514012 2.86991 0.171337 4.28343 0.171337 5.05445 0.171337 5.99681-0.0856687 7.23899-1.11369 6.81067 1.97038 5.99681 3.51242 4.32625 3.51242 3.08407 3.51242 3.51242 2.57006 2.57006 2.57006 2.35589 2.57006 1.84188 2.82707 1.84188 3.29823 1.84188 4.02643 3.38393 4.15492 4.06928 4.15492 4.75463 4.15492 5.65413 3.98358 6.51082 3.08407 7.62451 2.01321 8.09568 1.32786 8.82387-1.79904L9.80905-6.25381C9.89475-6.55364 10.0661-7.1105 10.0661-7.32469 10.0661-7.62451 9.8519-7.79585 9.2094-7.79585 8.4812-7.79585 8.43835-7.02483 8.30986-6.33948Z" fill="#000000" fill-rule="nonzero" fill-opacity="1" transform="matrix(1 0 0 1.00476 898.239 429.297)"/><path d="M365.755-41.3765 359.427-46.4311" stroke="#000000" stroke-width="1.09245" stroke-linecap="butt" stroke-linejoin="miter" stroke-miterlimit="10" stroke-opacity="1" fill="none" fill-rule="nonzero" transform="matrix(1 0 0 -1.00476 422.352 194.72)"/><path d="M392.727 66.2327C395.34 64.8404 400.063 63.1593 403.811 62.6023L398.692 56.2093C397.333 59.7433 394.654 63.9837 392.727 66.2327" fill="#000000" fill-rule="nonzero" fill-opacity="1" transform="matrix(1 0 0 1.00476 381.384 181)"/><path d="M376.271-41.3765 402.056-92.9383" stroke="#000000" stroke-width="1.09245" stroke-linecap="butt" stroke-linejoin="miter" stroke-miterlimit="10" stroke-opacity="1" fill="none" fill-rule="nonzero" transform="matrix(1 0 0 -1.00476 422.352 194.72)"/><path d="M447.415 115.396C446.601 112.537 445.949 107.578 446.195 103.788L438.87 107.45C442.039 109.527 445.628 113.029 447.415 115.396" fill="#000000" fill-rule="nonzero" fill-opacity="1" transform="matrix(1 0 0 1.00476 381.384 181)"/><path d="M404.499-132.871 388.201-158.946" stroke="#000000" stroke-width="1.09245" stroke-linecap="butt" stroke-linejoin="miter" stroke-miterlimit="10" stroke-opacity="1" fill="none" fill-rule="nonzero" transform="matrix(1 0 0 -1.00476 422.352 194.72)"/><path d="M423.963 180.943C425.967 178.758 429.865 175.61 433.226 173.843L426.276 169.506C426.158 173.297 425.035 178.18 423.963 180.943" fill="#000000" fill-rule="nonzero" fill-opacity="1" transform="matrix(1 0 0 1.00476 381.384 181)"/><path d="M419.93-132.871 446.124-204.479" stroke="#000000" stroke-width="1.09245" stroke-linecap="butt" stroke-linejoin="miter" stroke-miterlimit="10" stroke-opacity="1" fill="none" fill-rule="nonzero" transform="matrix(1 0 0 -1.00476 422.352 194.72)"/><path d="M490.474 227.375C489.981 224.452 489.896 219.44 490.57 215.703L482.873 218.519C485.795 220.94 488.953 224.827 490.474 227.375" fill="#000000" fill-rule="nonzero" fill-opacity="1" transform="matrix(1 0 0 1.00476 381.384 181)"/><path d="M4.71178-2.01321 4.71178-7.71018C4.71178-8.69538 4.75463-9.68056 4.75463-9.89475 4.75463-9.98039 4.75463-9.98039 4.66893-9.98039 3.76942-9.42355 2.91273-8.99521 1.45637-8.35271 1.4992-8.13852 1.54204-8.01003 1.71337-7.88152 2.44156-8.18137 2.82707-8.30986 3.12689-8.30986 3.42675-8.30986 3.46957-7.92434 3.46957-7.36751L3.46957-2.01321C3.46957-0.642515 2.9984-0.556846 1.88471-0.514012 1.75621-0.428343 1.75621-0.0856687 1.88471 0.0428343 2.65573 0 3.25541 0 4.15492 0 4.92596 0 5.31146 0 6.16814 0.0428343 6.25381-0.0856687 6.25381-0.428343 6.16814-0.514012 5.0116-0.556846 4.71178-0.642515 4.71178-2.01321Z" fill="#000000" fill-rule="nonzero" fill-opacity="1" transform="matrix(1 0 0 1.00476 402.899 220.653)"/><path d="M6.12532-10.0661C6.12532-10.7514 6.33948-11.0084 7.06765-11.0084L8.95236-11.0084 8.95236-12.8503 6.93916-12.8503C5.69695-12.8503 4.84027-12.6361 4.3691-12.2078 3.94076-11.7795 3.68375-11.0084 3.68375-9.89475L3.68375-9.25222 1.45637-9.25222 1.45637-7.41033 3.68375-7.41033 3.68375 0 6.12532 0 6.12532-7.41033 8.95236-7.41033 8.95236-9.25222 6.12532-9.25222Z" fill="#000000" fill-rule="nonzero" fill-opacity="1" transform="matrix(1 0 0 1.00476 426.905 220.653)"/><path d="M1.32786-3.21259C1.32786-0.942355 2.22739 0.257006 3.98358 0.257006 5.14012 0.257006 5.99681-0.342675 6.33948-1.3707L6.33948 0 8.78103 0 8.78103-9.25222 6.33948-9.25222 6.33948-3.94076C6.33948-2.52723 5.82547-1.75621 4.96878-1.75621 4.06928-1.75621 3.7266-2.27022 3.7266-3.59808L3.7266-9.25222 1.32786-9.25222Z" fill="#000000" fill-rule="nonzero" fill-opacity="1" transform="matrix(1 0 0 1.00476 437.099 220.653)"/><path d="M8.86672-5.99681C8.86672-8.30986 7.96719-9.46638 6.21097-9.46638 5.0116-9.46638 4.15492-8.86672 3.81224-7.88152L3.81224-9.25222 1.41353-9.25222 1.41353 0 3.81224 0 3.81224-5.31146C3.81224-6.68216 4.3691-7.49602 5.22579-7.49602 6.08248-7.49602 6.42515-6.98201 6.42515-5.65413L6.42515 0 8.86672 0Z" fill="#000000" fill-rule="nonzero" fill-opacity="1" transform="matrix(1 0 0 1.00476 447.293 220.653)"/><path d="M7.1105-8.05286C6.59649-8.99521 5.7398-9.46638 4.62611-9.46638 2.39872-9.46638 1.02802-7.66736 1.02802-4.66893 1.02802-1.6277 2.39872 0.257006 4.62611 0.257006 5.7398 0.257006 6.55364-0.257006 7.1105-1.15653L7.1105 0 8.60969 0 8.60969-12.8503 7.1105-12.8503ZM2.61289-4.62611C2.61289-6.98201 3.38393-8.18137 4.84027-8.18137 6.29666-8.18137 7.1105-6.98201 7.1105-4.62611 7.1105-2.27022 6.29666-1.02802 4.84027-1.02802 3.38393-1.02802 2.61289-2.27022 2.61289-4.62611Z" fill="#000000" fill-rule="nonzero" fill-opacity="1" transform="matrix(1 0 0 1.00476 467.681 220.653)"/><path d="M2.09888-9.25222 2.09888-8.05286 4.49759-8.05286 4.49759-1.19936 1.45637-1.19936 1.45637 0 9.03806 0 9.03806-1.19936 5.99681-1.19936 5.99681-9.25222ZM4.49759-12.8503 4.49759-10.9228 5.99681-10.9228 5.99681-12.8503Z" fill="#000000" fill-rule="nonzero" fill-opacity="1" transform="matrix(1 0 0 1.00476 477.874 220.653)"/><path d="M8.05286-8.95236C7.15335-9.29504 6.25381-9.46638 5.26864-9.46638 3.04125-9.46638 1.79904-8.4812 1.79904-6.68216 1.79904-5.31146 2.57006-4.49759 4.32625-4.19776L4.88311-4.06928 4.92596-4.02643C6.29666-3.76942 6.98201-3.29823 6.98201-2.57006 6.98201-1.58487 6.21097-1.02802 4.84027-1.02802 3.94076-1.02802 2.91273-1.32786 1.75621-1.92755L1.75621-0.342675C2.91273 0.0428343 3.94076 0.257006 4.84027 0.257006 7.15335 0.257006 8.52405-0.856687 8.52405-2.65573 8.52405-4.02643 7.71018-4.92596 6.21097-5.22579L5.61131-5.31146C4.58329-5.52562 3.94076-5.7398 3.7266-5.91114 3.46957-6.12532 3.34108-6.42515 3.34108-6.85349 3.34108-7.753 4.02643-8.22419 5.39713-8.22419 6.29666-8.22419 7.15335-7.92434 8.05286-7.45317Z" fill="#000000" fill-rule="nonzero" fill-opacity="1" transform="matrix(1 0 0 1.00476 488.068 220.653)"/><path d="M5.0973-11.8651 3.55526-11.8651 3.55526-9.25222 1.07086-9.25222 1.07086-8.05286 3.55526-8.05286 3.55526-3.04125C3.55526-0.813852 4.3691 0 6.68216 0L8.52405 0 8.52405-1.19936 6.81067-1.19936C5.52562-1.19936 5.0973-1.71337 5.0973-3.04125L5.0973-8.05286 8.52405-8.05286 8.52405-9.25222 5.0973-9.25222Z" fill="#000000" fill-rule="nonzero" fill-opacity="1" transform="matrix(1 0 0 1.00476 498.262 220.653)"/><path d="M7.32469-12.8503 5.99681-12.8503C4.32625-10.2374 3.51242-7.753 3.51242-5.31146 3.51242-2.86991 4.32625-0.385509 5.99681 2.22739L7.32469 2.22739C5.82547-0.29984 5.14012-2.78422 5.14012-5.31146 5.14012-7.8387 5.82547-10.3231 7.32469-12.8503Z" fill="#000000" fill-rule="nonzero" fill-opacity="1" transform="matrix(1 0 0 1.00476 508.455 220.653)"/><path d="M8.78103-12.8503 6.93916-12.8503C5.0116-12.8503 4.06928-11.9079 4.06928-9.89475L4.06928-9.25222 1.6277-9.25222 1.6277-8.05286 4.06928-8.05286 4.06928 0 5.61131 0 5.61131-8.05286 8.78103-8.05286 8.78103-9.25222 5.61131-9.25222 5.61131-10.0661C5.61131-11.2226 5.95399-11.6081 7.06765-11.6081L8.78103-11.6081Z" fill="#000000" fill-rule="nonzero" fill-opacity="1" transform="matrix(1 0 0 1.00476 518.649 220.653)"/><path d="M4.15492-2.48439 4.15492-0.813852 3.34108 2.35589 4.58329 2.35589 6.21097-0.813852 6.21097-2.48439Z" fill="#000000" fill-rule="nonzero" fill-opacity="1" transform="matrix(1 0 0 1.00476 528.843 220.653)"/><path d="M9.25222-9.25222 7.53884-9.25222 5.0973-5.91114 2.65573-9.25222 0.942355-9.25222 4.28343-4.84027 0.642515 0 2.39872 0 5.0973-3.7266 7.79585 0 9.55207 0 5.91114-4.84027Z" fill="#000000" fill-rule="nonzero" fill-opacity="1" transform="matrix(1 0 0 1.00476 549.23 220.653)"/><path d="M4.15492-2.48439 4.15492-0.813852 3.34108 2.35589 4.58329 2.35589 6.21097-0.813852 6.21097-2.48439Z" fill="#000000" fill-rule="nonzero" fill-opacity="1" transform="matrix(1 0 0 1.00476 559.424 220.653)"/><path d="M7.1105-2.9984 9.50922-9.25222 7.92434-9.25222 5.22579-2.01321 2.48439-9.25222 0.856687-9.25222 4.41195-0.171337C4.02643 0.942355 3.7266 1.6277 3.46957 1.84188 3.21259 2.09888 2.86991 2.27022 2.39872 2.27022L1.54204 2.27022 1.54204 3.51242 2.7414 3.51242C3.76942 3.51242 4.49759 3.08407 5.0116 2.22739 5.22579 1.92755 5.56846 1.02802 6.12532-0.428343 6.51082-1.4992 6.85349-2.35589 7.1105-2.9984Z" fill="#000000" fill-rule="nonzero" fill-opacity="1" transform="matrix(1 0 0 1.00476 579.811 220.653)"/><path d="M2.86991-12.8503C4.3691-10.3231 5.05445-7.79585 5.05445-5.31146 5.05445-2.82707 4.3691-0.342675 2.86991 2.22739L4.19776 2.22739C5.86829-0.342675 6.68216-2.82707 6.68216-5.31146 6.68216-7.753 5.86829-10.2374 4.19776-12.8503Z" fill="#000000" fill-rule="nonzero" fill-opacity="1" transform="matrix(1 0 0 1.00476 590.005 220.653)"/><path d="M0.728184-4.32625 0.728184-2.91273 9.46638-2.91273 9.46638-4.32625ZM0.728184-7.66736 0.728184-6.29666 9.46638-6.29666 9.46638-7.66736Z" fill="#000000" fill-rule="nonzero" fill-opacity="1" transform="matrix(1 0 0 1.00476 610.393 220.653)"/><path d="M0.98519-7.66736C0.98519-7.32469 1.32786-7.02483 1.67054-7.02483 1.92755-7.02483 2.44156-7.32469 2.44156-7.71018 2.44156-7.8387 2.39872-7.92434 2.35589-8.05286 2.31305-8.13852 2.22739-8.30986 2.22739-8.43835 2.22739-8.82387 2.65573-9.42355 3.85509-9.42355 4.45477-9.42355 5.26864-9.03806 5.26864-7.45317 5.26864-6.3823 4.92596-5.52562 3.94076-4.54044L2.7414-3.38393C1.11369-1.71337 0.856687-0.942355 0.856687 0.0428343 0.856687 0.0428343 1.67054 0 2.22739 0L5.0973 0C5.61131 0 6.3823 0.0428343 6.3823 0.0428343 6.59649-0.856687 6.72498-2.05605 6.76783-2.57006 6.63934-2.65573 6.468-2.65573 6.29666-2.65573 5.99681-1.45637 5.7398-1.07086 5.14012-1.07086L2.22739-1.07086C2.22739-1.84188 3.34108-2.95556 3.42675-3.04125L5.0973-4.62611C6.03963-5.52562 6.72498-6.25381 6.72498-7.49602 6.72498-9.29504 5.26864-10.0232 3.94076-10.0232 2.14172-10.0232 0.98519-8.65254 0.98519-7.66736Z" fill="#000000" fill-rule="nonzero" fill-opacity="1" transform="matrix(1 0 0 1.00476 402.899 243.978)"/><path d="M1.84188-9.25222 1.84188-7.41033 4.19776-7.41033 4.19776-1.84188 1.19936-1.84188 1.19936 0 9.63771 0 9.63771-1.84188 6.59649-1.84188 6.59649-9.25222ZM4.19776-13.7498 4.19776-10.9228 6.59649-10.9228 6.59649-13.7498Z" fill="#000000" fill-rule="nonzero" fill-opacity="1" transform="matrix(1 0 0 1.00476 447.224 243.978)"/><path d="M6.12532-10.0661C6.12532-10.7514 6.33948-11.0084 7.06765-11.0084L8.95236-11.0084 8.95236-12.8503 6.93916-12.8503C5.69695-12.8503 4.84027-12.6361 4.3691-12.2078 3.94076-11.7795 3.68375-11.0084 3.68375-9.89475L3.68375-9.25222 1.45637-9.25222 1.45637-7.41033 3.68375-7.41033 3.68375 0 6.12532 0 6.12532-7.41033 8.95236-7.41033 8.95236-9.25222 6.12532-9.25222Z" fill="#000000" fill-rule="nonzero" fill-opacity="1" transform="matrix(1 0 0 1.00476 457.418 243.978)"/><path d="M9.25222-9.25222 7.53884-9.25222 5.0973-5.91114 2.65573-9.25222 0.942355-9.25222 4.28343-4.84027 0.642515 0 2.39872 0 5.0973-3.7266 7.79585 0 9.55207 0 5.91114-4.84027Z" fill="#000000" fill-rule="nonzero" fill-opacity="1" transform="matrix(1 0 0 1.00476 477.805 243.978)"/><path d="M0.728184-4.32625 0.728184-2.91273 9.46638-2.91273 9.46638-4.32625ZM0.728184-7.66736 0.728184-6.29666 9.46638-6.29666 9.46638-7.66736Z" fill="#000000" fill-rule="nonzero" fill-opacity="1" transform="matrix(1 0 0 1.00476 498.192 243.978)"/><path d="M0.728184-4.32625 0.728184-2.91273 9.46638-2.91273 9.46638-4.32625ZM0.728184-7.66736 0.728184-6.29666 9.46638-6.29666 9.46638-7.66736Z" fill="#000000" fill-rule="nonzero" fill-opacity="1" transform="matrix(1 0 0 1.00476 508.386 243.978)"/><path d="M7.1105-2.9984 9.50922-9.25222 7.92434-9.25222 5.22579-2.01321 2.48439-9.25222 0.856687-9.25222 4.41195-0.171337C4.02643 0.942355 3.7266 1.6277 3.46957 1.84188 3.21259 2.09888 2.86991 2.27022 2.39872 2.27022L1.54204 2.27022 1.54204 3.51242 2.7414 3.51242C3.76942 3.51242 4.49759 3.08407 5.0116 2.22739 5.22579 1.92755 5.56846 1.02802 6.12532-0.428343 6.51082-1.4992 6.85349-2.35589 7.1105-2.9984Z" fill="#000000" fill-rule="nonzero" fill-opacity="1" transform="matrix(1 0 0 1.00476 528.773 243.978)"/><path d="M5.69695-11.8651 3.29823-11.8651 3.29823-9.25222 0.899521-9.25222 0.899521-7.41033 3.29823-7.41033 3.29823-3.12689C3.29823-1.92755 3.51242-1.11369 4.02643-0.642515 4.49759-0.214172 5.43997 0 6.85349 0L8.86672 0 8.86672-1.84188 7.02483-1.84188C6.08248-1.84188 5.69695-2.18455 5.69695-2.9984L5.69695-7.41033 8.86672-7.41033 8.86672-9.25222 5.69695-9.25222Z" fill="#000000" fill-rule="nonzero" fill-opacity="1" transform="matrix(1 0 0 1.00476 549.16 243.978)"/><path d="M8.86672-5.99681C8.86672-8.30986 7.96719-9.46638 6.21097-9.46638 5.0116-9.46638 4.15492-8.86672 3.81224-7.88152L3.81224-12.8503 1.41353-12.8503 1.41353 0 3.81224 0 3.81224-5.31146C3.81224-6.68216 4.3691-7.49602 5.22579-7.49602 6.08248-7.49602 6.42515-6.98201 6.42515-5.65413L6.42515 0 8.86672 0Z" fill="#000000" fill-rule="nonzero" fill-opacity="1" transform="matrix(1 0 0 1.00476 559.354 243.978)"/><path d="M9.1237-0.471178 9.1237-2.65573C7.92434-1.97038 6.85349-1.67054 5.78265-1.67054 4.06928-1.67054 3.21259-2.39872 3.21259-3.85509L9.50922-3.85509 9.50922-4.84027C9.50922-7.79585 7.92434-9.46638 5.14012-9.46638 3.81224-9.46638 2.7414-9.03806 1.92755-8.13852 1.15653-7.28184 0.771018-6.08248 0.771018-4.58329 0.771018-1.45637 2.44156 0.257006 5.52562 0.257006 6.85349 0.257006 7.96719 0 9.1237-0.471178ZM7.06765-5.65413 3.25541-5.65413C3.38393-6.89631 4.06928-7.58166 5.14012-7.58166 6.3823-7.58166 7.02483-6.93916 7.06765-5.65413Z" fill="#000000" fill-rule="nonzero" fill-opacity="1" transform="matrix(1 0 0 1.00476 569.548 243.978)"/><path d="M8.86672-5.99681C8.86672-8.30986 7.96719-9.46638 6.21097-9.46638 5.0116-9.46638 4.15492-8.86672 3.81224-7.88152L3.81224-9.25222 1.41353-9.25222 1.41353 0 3.81224 0 3.81224-5.31146C3.81224-6.68216 4.3691-7.49602 5.22579-7.49602 6.08248-7.49602 6.42515-6.98201 6.42515-5.65413L6.42515 0 8.86672 0Z" fill="#000000" fill-rule="nonzero" fill-opacity="1" transform="matrix(1 0 0 1.00476 579.742 243.978)"/><path d="M3.51242-9.42355C4.24061-9.42355 4.88311-8.99521 4.88311-7.96719 4.88311-7.15335 3.94076-5.86829 2.31305-5.65413L2.39872-5.0973C2.65573-5.14012 2.95556-5.14012 3.16974-5.14012 4.1121-5.14012 5.31146-4.88311 5.31146-3.04125 5.31146-0.856687 3.85509-0.428343 3.29823-0.428343 2.44156-0.428343 2.31305-0.771018 2.09888-1.07086 1.97038-1.32786 1.75621-1.4992 1.41353-1.4992 1.07086-1.4992 0.728184-1.19936 0.728184-0.942355 0.728184-0.29984 2.09888 0.171337 3.08407 0.171337 5.05445 0.171337 6.76783-1.11369 6.76783-3.25541 6.76783-5.05445 5.43997-5.69695 4.45477-5.86829 5.78265-6.51082 6.16814-7.19617 6.16814-8.05286 6.16814-8.56687 6.03963-8.95236 5.65413-9.38073 5.31146-9.72341 4.71178-10.0232 3.85509-10.0232 1.45637-10.0232 0.771018-8.43835 0.771018-7.88152 0.771018-7.66736 0.942355-7.32469 1.32786-7.32469 1.88471-7.32469 1.97038-7.88152 1.97038-8.18137 1.97038-9.25222 3.08407-9.42355 3.51242-9.42355Z" fill="#000000" fill-rule="nonzero" fill-opacity="1" transform="matrix(1 0 0 1.00476 402.899 267.302)"/><path d="M8.78103-12.8503 6.93916-12.8503C5.0116-12.8503 4.06928-11.9079 4.06928-9.89475L4.06928-9.25222 1.6277-9.25222 1.6277-8.05286 4.06928-8.05286 4.06928 0 5.61131 0 5.61131-8.05286 8.78103-8.05286 8.78103-9.25222 5.61131-9.25222 5.61131-10.0661C5.61131-11.2226 5.95399-11.6081 7.06765-11.6081L8.78103-11.6081Z" fill="#000000" fill-rule="nonzero" fill-opacity="1" transform="matrix(1 0 0 1.00476 467.544 267.302)"/><path d="M7.32469-12.8503 5.99681-12.8503C4.32625-10.2374 3.51242-7.753 3.51242-5.31146 3.51242-2.86991 4.32625-0.385509 5.99681 2.22739L7.32469 2.22739C5.82547-0.29984 5.14012-2.78422 5.14012-5.31146 5.14012-7.8387 5.82547-10.3231 7.32469-12.8503Z" fill="#000000" fill-rule="nonzero" fill-opacity="1" transform="matrix(1 0 0 1.00476 477.737 267.302)"/><path d="M9.25222-9.25222 7.53884-9.25222 5.0973-5.91114 2.65573-9.25222 0.942355-9.25222 4.28343-4.84027 0.642515 0 2.39872 0 5.0973-3.7266 7.79585 0 9.55207 0 5.91114-4.84027Z" fill="#000000" fill-rule="nonzero" fill-opacity="1" transform="matrix(1 0 0 1.00476 487.931 267.302)"/><path d="M2.86991-12.8503C4.3691-10.3231 5.05445-7.79585 5.05445-5.31146 5.05445-2.82707 4.3691-0.342675 2.86991 2.22739L4.19776 2.22739C5.86829-0.342675 6.68216-2.82707 6.68216-5.31146 6.68216-7.753 5.86829-10.2374 4.19776-12.8503Z" fill="#000000" fill-rule="nonzero" fill-opacity="1" transform="matrix(1 0 0 1.00476 498.125 267.302)"/><path d="M9.46638-7.92434 9.46638-9.42355 0.728184-5.99681 0.728184-4.62611 9.46638-1.15653 9.46638-2.65573 2.44156-5.31146Z" fill="#000000" fill-rule="nonzero" fill-opacity="1" transform="matrix(1 0 0 1.00476 518.512 267.302)"/><path d="M9.46638-7.92434 9.46638-9.42355 0.728184-5.99681 0.728184-4.62611 9.46638-1.15653 9.46638-2.65573 2.44156-5.31146Z" fill="#000000" fill-rule="nonzero" fill-opacity="1" transform="matrix(1 0 0 1.00476 528.706 267.302)"/><path d="M2.22739-1.41353 2.22739 0 9.03806 0 9.03806-1.41353 6.468-1.41353 6.468-12.3363 4.79745-12.3363 2.01321-11.7366 2.01321-10.1946 4.84027-10.8371 4.84027-1.41353Z" fill="#000000" fill-rule="nonzero" fill-opacity="1" transform="matrix(1 0 0 1.00476 549.093 267.302)"/><path d="M4.45477-8.30986 4.45477-3.59808 1.32786-3.59808C2.14172-4.92596 3.29823-6.76783 4.45477-8.30986ZM7.06765-3.59808 5.69695-3.59808 5.69695-8.39553C5.69695-9.2094 5.69695-9.8519 5.7398-9.98039L5.69695-10.0232 5.18294-10.0232C5.05445-10.0232 4.96878-9.89475 4.92596-9.80905 3.85509-8.56687 1.97038-5.86829 0.471178-3.51242 0.514012-3.25541 0.599681-2.82707 1.11369-2.82707L4.45477-2.82707 4.45477-1.32786C4.45477-0.556846 3.81224-0.556846 3.12689-0.514012 2.9984-0.428343 2.9984-0.0856687 3.12689 0.0428343 3.6409 0 4.28343 0 5.05445 0 5.69695 0 6.29666 0 6.85349 0.0428343 6.93916-0.0856687 6.93916-0.428343 6.85349-0.514012 6.03963-0.556846 5.69695-0.556846 5.69695-1.32786L5.69695-2.82707 6.81067-2.82707C7.06765-2.82707 7.28184-3.12689 7.28184-3.34108 7.28184-3.51242 7.23899-3.59808 7.06765-3.59808Z" fill="#000000" fill-rule="nonzero" fill-opacity="1" transform="matrix(1 0 0 1.00476 402.899 290.627)"/><path d="M9.1237-0.471178 9.1237-2.65573C7.92434-1.97038 6.85349-1.67054 5.78265-1.67054 4.06928-1.67054 3.21259-2.39872 3.21259-3.85509L9.50922-3.85509 9.50922-4.84027C9.50922-7.79585 7.92434-9.46638 5.14012-9.46638 3.81224-9.46638 2.7414-9.03806 1.92755-8.13852 1.15653-7.28184 0.771018-6.08248 0.771018-4.58329 0.771018-1.45637 2.44156 0.257006 5.52562 0.257006 6.85349 0.257006 7.96719 0 9.1237-0.471178ZM7.06765-5.65413 3.25541-5.65413C3.38393-6.89631 4.06928-7.58166 5.14012-7.58166 6.3823-7.58166 7.02483-6.93916 7.06765-5.65413Z" fill="#000000" fill-rule="nonzero" fill-opacity="1" transform="matrix(1 0 0 1.00476 447.224 290.627)"/><path d="M3.21259-3.85509C3.21259-1.07086 4.1121 0 6.42515 0L9.03806 0 9.03806-1.84188 7.1105-1.84188C6.03963-1.84188 5.61131-2.39872 5.61131-3.85509L5.61131-12.8503 0.728184-12.8503 0.728184-11.0084 3.21259-11.0084Z" fill="#000000" fill-rule="nonzero" fill-opacity="1" transform="matrix(1 0 0 1.00476 457.418 290.627)"/><path d="M8.18137-8.95236C7.19617-9.29504 6.12532-9.46638 5.0973-9.46638 2.7414-9.46638 1.41353-8.43835 1.41353-6.63934 1.41353-5.14012 2.22739-4.28343 4.06928-3.85509L4.75463-3.7266C5.52562-3.55526 6.03963-3.38393 6.21097-3.21259 6.42515-3.04125 6.51082-2.78422 6.51082-2.48439 6.51082-1.84188 5.95399-1.54204 4.79745-1.54204 3.76942-1.54204 2.65573-1.84188 1.58487-2.44156L1.58487-0.342675C2.78422 0.0428343 3.94076 0.257006 5.05445 0.257006 7.58166 0.257006 8.82387-0.728184 8.82387-2.61289 8.82387-4.19776 8.01003-5.0973 6.25381-5.52562L5.56846-5.69695 5.4828-5.69695C4.28343-5.99681 3.7266-6.33948 3.7266-6.76783 3.7266-7.41033 4.28343-7.71018 5.35428-7.71018 6.29666-7.71018 7.28184-7.41033 8.18137-6.85349Z" fill="#000000" fill-rule="nonzero" fill-opacity="1" transform="matrix(1 0 0 1.00476 467.612 290.627)"/><path d="M9.1237-0.471178 9.1237-2.65573C7.92434-1.97038 6.85349-1.67054 5.78265-1.67054 4.06928-1.67054 3.21259-2.39872 3.21259-3.85509L9.50922-3.85509 9.50922-4.84027C9.50922-7.79585 7.92434-9.46638 5.14012-9.46638 3.81224-9.46638 2.7414-9.03806 1.92755-8.13852 1.15653-7.28184 0.771018-6.08248 0.771018-4.58329 0.771018-1.45637 2.44156 0.257006 5.52562 0.257006 6.85349 0.257006 7.96719 0 9.1237-0.471178ZM7.06765-5.65413 3.25541-5.65413C3.38393-6.89631 4.06928-7.58166 5.14012-7.58166 6.3823-7.58166 7.02483-6.93916 7.06765-5.65413Z" fill="#000000" fill-rule="nonzero" fill-opacity="1" transform="matrix(1 0 0 1.00476 477.805 290.627)"/><path d="M5.22579-3.08407C5.22579-1.54204 4.41195-0.385509 3.42675-0.385509 2.78422-0.385509 2.61289-0.813852 2.35589-1.11369 2.14172-1.41353 1.84188-1.67054 1.4992-1.67054 1.19936-1.67054 0.899521-1.3707 0.899521-1.07086 0.899521-0.385509 2.27022 0.171337 3.21259 0.171337 5.26864 0.171337 6.68216-1.32786 6.68216-3.38393 6.68216-4.96878 5.61131-6.42515 3.76942-6.42515 3.04125-6.42515 2.44156-6.25381 2.14172-6.16814L2.48439-8.90954C3.08407-8.82387 3.59808-8.7382 4.41195-8.7382 4.88311-8.7382 5.43997-8.78103 6.12532-8.82387L6.3823-9.93757 6.25381-10.0232C5.31146-9.93757 4.45477-9.8519 3.55526-9.8519 2.95556-9.8519 2.39872-9.89475 1.79904-9.93757L1.2422-5.18294C2.09888-5.52562 2.7414-5.61131 3.34108-5.61131 4.41195-5.61131 5.22579-4.88311 5.22579-3.08407Z" fill="#000000" fill-rule="nonzero" fill-opacity="1" transform="matrix(1 0 0 1.00476 402.899 313.954)"/><path d="M7.1105-8.05286C6.59649-8.99521 5.7398-9.46638 4.62611-9.46638 2.39872-9.46638 1.02802-7.66736 1.02802-4.66893 1.02802-1.6277 2.39872 0.257006 4.62611 0.257006 5.7398 0.257006 6.55364-0.257006 7.1105-1.15653L7.1105 0 8.60969 0 8.60969-12.8503 7.1105-12.8503ZM2.61289-4.62611C2.61289-6.98201 3.38393-8.18137 4.84027-8.18137 6.29666-8.18137 7.1105-6.98201 7.1105-4.62611 7.1105-2.27022 6.29666-1.02802 4.84027-1.02802 3.38393-1.02802 2.61289-2.27022 2.61289-4.62611Z" fill="#000000" fill-rule="nonzero" fill-opacity="1" transform="matrix(1 0 0 1.00476 467.544 313.954)"/><path d="M9.25222-9.25222 7.53884-9.25222 5.0973-5.91114 2.65573-9.25222 0.942355-9.25222 4.28343-4.84027 0.642515 0 2.39872 0 5.0973-3.7266 7.79585 0 9.55207 0 5.91114-4.84027Z" fill="#000000" fill-rule="nonzero" fill-opacity="1" transform="matrix(1 0 0 1.00476 477.737 313.954)"/><path d="M0.728184-4.32625 0.728184-2.91273 9.46638-2.91273 9.46638-4.32625ZM0.728184-7.66736 0.728184-6.29666 9.46638-6.29666 9.46638-7.66736Z" fill="#000000" fill-rule="nonzero" fill-opacity="1" transform="matrix(1 0 0 1.00476 498.125 313.954)"/><path d="M8.78103-12.8503 6.93916-12.8503C5.0116-12.8503 4.06928-11.9079 4.06928-9.89475L4.06928-9.25222 1.6277-9.25222 1.6277-8.05286 4.06928-8.05286 4.06928 0 5.61131 0 5.61131-8.05286 8.78103-8.05286 8.78103-9.25222 5.61131-9.25222 5.61131-10.0661C5.61131-11.2226 5.95399-11.6081 7.06765-11.6081L8.78103-11.6081Z" fill="#000000" fill-rule="nonzero" fill-opacity="1" transform="matrix(1 0 0 1.00476 518.512 313.954)"/><path d="M7.32469-12.8503 5.99681-12.8503C4.32625-10.2374 3.51242-7.753 3.51242-5.31146 3.51242-2.86991 4.32625-0.385509 5.99681 2.22739L7.32469 2.22739C5.82547-0.29984 5.14012-2.78422 5.14012-5.31146 5.14012-7.8387 5.82547-10.3231 7.32469-12.8503Z" fill="#000000" fill-rule="nonzero" fill-opacity="1" transform="matrix(1 0 0 1.00476 528.706 313.954)"/><path d="M9.25222-9.25222 7.53884-9.25222 5.0973-5.91114 2.65573-9.25222 0.942355-9.25222 4.28343-4.84027 0.642515 0 2.39872 0 5.0973-3.7266 7.79585 0 9.55207 0 5.91114-4.84027Z" fill="#000000" fill-rule="nonzero" fill-opacity="1" transform="matrix(1 0 0 1.00476 538.899 313.954)"/><path d="M2.86991-12.8503C4.3691-10.3231 5.05445-7.79585 5.05445-5.31146 5.05445-2.82707 4.3691-0.342675 2.86991 2.22739L4.19776 2.22739C5.86829-0.342675 6.68216-2.82707 6.68216-5.31146 6.68216-7.753 5.86829-10.2374 4.19776-12.8503Z" fill="#000000" fill-rule="nonzero" fill-opacity="1" transform="matrix(1 0 0 1.00476 549.093 313.954)"/><path d="M2.22739-5.05445C2.7414-5.39713 3.29823-5.39713 3.55526-5.39713 5.18294-5.39713 5.52562-3.85509 5.52562-2.9984 5.52562-1.19936 4.84027-0.385509 4.06928-0.385509 2.9984-0.385509 2.09888-0.942355 2.09888-3.76942 2.09888-4.15492 2.09888-4.54044 2.22739-5.05445ZM2.35589-5.61131C2.78422-7.1105 3.85509-8.78103 6.03963-9.59489 6.03963-9.80905 5.95399-9.93757 5.82547-10.0232 4.19776-9.55207 3.16974-8.82387 2.22739-7.79585 1.2422-6.59649 0.728184-5.0973 0.728184-3.81224 0.728184-0.471178 2.61289 0.171337 3.85509 0.171337 6.03963 0.171337 6.89631-1.88471 6.89631-3.29823 6.89631-4.71178 6.16814-5.99681 3.94076-5.99681 3.51242-5.99681 2.86991-5.86829 2.35589-5.61131Z" fill="#000000" fill-rule="nonzero" fill-opacity="1" transform="matrix(1 0 0 1.00476 402.899 337.279)"/><path d="M7.1105-8.05286C6.59649-8.99521 5.7398-9.46638 4.62611-9.46638 2.39872-9.46638 1.02802-7.66736 1.02802-4.66893 1.02802-1.6277 2.39872 0.257006 4.62611 0.257006 5.7398 0.257006 6.55364-0.257006 7.1105-1.15653L7.1105 0 8.60969 0 8.60969-12.8503 7.1105-12.8503ZM2.61289-4.62611C2.61289-6.98201 3.38393-8.18137 4.84027-8.18137 6.29666-8.18137 7.1105-6.98201 7.1105-4.62611 7.1105-2.27022 6.29666-1.02802 4.84027-1.02802 3.38393-1.02802 2.61289-2.27022 2.61289-4.62611Z" fill="#000000" fill-rule="nonzero" fill-opacity="1" transform="matrix(1 0 0 1.00476 467.544 337.279)"/><path d="M7.1105-2.9984 9.50922-9.25222 7.92434-9.25222 5.22579-2.01321 2.48439-9.25222 0.856687-9.25222 4.41195-0.171337C4.02643 0.942355 3.7266 1.6277 3.46957 1.84188 3.21259 2.09888 2.86991 2.27022 2.39872 2.27022L1.54204 2.27022 1.54204 3.51242 2.7414 3.51242C3.76942 3.51242 4.49759 3.08407 5.0116 2.22739 5.22579 1.92755 5.56846 1.02802 6.12532-0.428343 6.51082-1.4992 6.85349-2.35589 7.1105-2.9984Z" fill="#000000" fill-rule="nonzero" fill-opacity="1" transform="matrix(1 0 0 1.00476 477.737 337.279)"/><path d="M0.728184-4.32625 0.728184-2.91273 9.46638-2.91273 9.46638-4.32625ZM0.728184-7.66736 0.728184-6.29666 9.46638-6.29666 9.46638-7.66736Z" fill="#000000" fill-rule="nonzero" fill-opacity="1" transform="matrix(1 0 0 1.00476 498.125 337.279)"/><path d="M8.78103-12.8503 6.93916-12.8503C5.0116-12.8503 4.06928-11.9079 4.06928-9.89475L4.06928-9.25222 1.6277-9.25222 1.6277-8.05286 4.06928-8.05286 4.06928 0 5.61131 0 5.61131-8.05286 8.78103-8.05286 8.78103-9.25222 5.61131-9.25222 5.61131-10.0661C5.61131-11.2226 5.95399-11.6081 7.06765-11.6081L8.78103-11.6081Z" fill="#000000" fill-rule="nonzero" fill-opacity="1" transform="matrix(1 0 0 1.00476 518.512 337.279)"/><path d="M7.32469-12.8503 5.99681-12.8503C4.32625-10.2374 3.51242-7.753 3.51242-5.31146 3.51242-2.86991 4.32625-0.385509 5.99681 2.22739L7.32469 2.22739C5.82547-0.29984 5.14012-2.78422 5.14012-5.31146 5.14012-7.8387 5.82547-10.3231 7.32469-12.8503Z" fill="#000000" fill-rule="nonzero" fill-opacity="1" transform="matrix(1 0 0 1.00476 528.706 337.279)"/><path d="M7.1105-2.9984 9.50922-9.25222 7.92434-9.25222 5.22579-2.01321 2.48439-9.25222 0.856687-9.25222 4.41195-0.171337C4.02643 0.942355 3.7266 1.6277 3.46957 1.84188 3.21259 2.09888 2.86991 2.27022 2.39872 2.27022L1.54204 2.27022 1.54204 3.51242 2.7414 3.51242C3.76942 3.51242 4.49759 3.08407 5.0116 2.22739 5.22579 1.92755 5.56846 1.02802 6.12532-0.428343 6.51082-1.4992 6.85349-2.35589 7.1105-2.9984Z" fill="#000000" fill-rule="nonzero" fill-opacity="1" transform="matrix(1 0 0 1.00476 538.899 337.279)"/><path d="M2.86991-12.8503C4.3691-10.3231 5.05445-7.79585 5.05445-5.31146 5.05445-2.82707 4.3691-0.342675 2.86991 2.22739L4.19776 2.22739C5.86829-0.342675 6.68216-2.82707 6.68216-5.31146 6.68216-7.753 5.86829-10.2374 4.19776-12.8503Z" fill="#000000" fill-rule="nonzero" fill-opacity="1" transform="matrix(1 0 0 1.00476 549.093 337.279)"/><path d="M2.78422-8.78103 5.7398-8.78103C4.45477-5.61131 3.16974-2.39872 2.01321 0.0856687L2.18455 0.214172 3.29823 0.171337C4.19776-2.61289 5.0973-5.35428 6.93916-9.80905L6.68216-10.0232C6.42515-9.93757 6.03963-9.8519 5.43997-9.8519L2.05605-9.8519C1.4992-9.8519 1.54204-10.0232 1.2422-10.0661 1.19936-10.0661 1.15653-10.0661 1.15653-10.0232 1.15653-9.25222 0.98519-8.26701 0.856687-7.41033 1.02802-7.36751 1.19936-7.32469 1.3707-7.36751 1.71337-8.65254 2.27022-8.78103 2.78422-8.78103Z" fill="#000000" fill-rule="nonzero" fill-opacity="1" transform="matrix(1 0 0 1.00476 402.899 360.603)"/><path d="M1.84188-9.25222 1.84188-7.41033 4.19776-7.41033 4.19776-1.84188 1.19936-1.84188 1.19936 0 9.63771 0 9.63771-1.84188 6.59649-1.84188 6.59649-9.25222ZM4.19776-13.7498 4.19776-10.9228 6.59649-10.9228 6.59649-13.7498Z" fill="#000000" fill-rule="nonzero" fill-opacity="1" transform="matrix(1 0 0 1.00476 467.544 360.603)"/><path d="M6.12532-10.0661C6.12532-10.7514 6.33948-11.0084 7.06765-11.0084L8.95236-11.0084 8.95236-12.8503 6.93916-12.8503C5.69695-12.8503 4.84027-12.6361 4.3691-12.2078 3.94076-11.7795 3.68375-11.0084 3.68375-9.89475L3.68375-9.25222 1.45637-9.25222 1.45637-7.41033 3.68375-7.41033 3.68375 0 6.12532 0 6.12532-7.41033 8.95236-7.41033 8.95236-9.25222 6.12532-9.25222Z" fill="#000000" fill-rule="nonzero" fill-opacity="1" transform="matrix(1 0 0 1.00476 477.737 360.603)"/><path d="M7.1105-8.05286C6.59649-8.99521 5.7398-9.46638 4.62611-9.46638 2.39872-9.46638 1.02802-7.66736 1.02802-4.66893 1.02802-1.6277 2.39872 0.257006 4.62611 0.257006 5.7398 0.257006 6.55364-0.257006 7.1105-1.15653L7.1105 0 8.60969 0 8.60969-12.8503 7.1105-12.8503ZM2.61289-4.62611C2.61289-6.98201 3.38393-8.18137 4.84027-8.18137 6.29666-8.18137 7.1105-6.98201 7.1105-4.62611 7.1105-2.27022 6.29666-1.02802 4.84027-1.02802 3.38393-1.02802 2.61289-2.27022 2.61289-4.62611Z" fill="#000000" fill-rule="nonzero" fill-opacity="1" transform="matrix(1 0 0 1.00476 498.127 360.603)"/><path d="M9.25222-9.25222 7.53884-9.25222 5.0973-5.91114 2.65573-9.25222 0.942355-9.25222 4.28343-4.84027 0.642515 0 2.39872 0 5.0973-3.7266 7.79585 0 9.55207 0 5.91114-4.84027Z" fill="#000000" fill-rule="nonzero" fill-opacity="1" transform="matrix(1 0 0 1.00476 508.32 360.603)"/><path d="M0.728184-4.32625 0.728184-2.91273 9.46638-2.91273 9.46638-4.32625ZM0.728184-7.66736 0.728184-6.29666 9.46638-6.29666 9.46638-7.66736Z" fill="#000000" fill-rule="nonzero" fill-opacity="1" transform="matrix(1 0 0 1.00476 528.708 360.603)"/><path d="M0.728184-4.32625 0.728184-2.91273 9.46638-2.91273 9.46638-4.32625ZM0.728184-7.66736 0.728184-6.29666 9.46638-6.29666 9.46638-7.66736Z" fill="#000000" fill-rule="nonzero" fill-opacity="1" transform="matrix(1 0 0 1.00476 538.901 360.603)"/><path d="M7.1105-8.05286C6.59649-8.99521 5.7398-9.46638 4.62611-9.46638 2.39872-9.46638 1.02802-7.66736 1.02802-4.66893 1.02802-1.6277 2.39872 0.257006 4.62611 0.257006 5.7398 0.257006 6.55364-0.257006 7.1105-1.15653L7.1105 0 8.60969 0 8.60969-12.8503 7.1105-12.8503ZM2.61289-4.62611C2.61289-6.98201 3.38393-8.18137 4.84027-8.18137 6.29666-8.18137 7.1105-6.98201 7.1105-4.62611 7.1105-2.27022 6.29666-1.02802 4.84027-1.02802 3.38393-1.02802 2.61289-2.27022 2.61289-4.62611Z" fill="#000000" fill-rule="nonzero" fill-opacity="1" transform="matrix(1 0 0 1.00476 559.289 360.603)"/><path d="M7.1105-2.9984 9.50922-9.25222 7.92434-9.25222 5.22579-2.01321 2.48439-9.25222 0.856687-9.25222 4.41195-0.171337C4.02643 0.942355 3.7266 1.6277 3.46957 1.84188 3.21259 2.09888 2.86991 2.27022 2.39872 2.27022L1.54204 2.27022 1.54204 3.51242 2.7414 3.51242C3.76942 3.51242 4.49759 3.08407 5.0116 2.22739 5.22579 1.92755 5.56846 1.02802 6.12532-0.428343 6.51082-1.4992 6.85349-2.35589 7.1105-2.9984Z" fill="#000000" fill-rule="nonzero" fill-opacity="1" transform="matrix(1 0 0 1.00476 569.482 360.603)"/><path d="M5.69695-11.8651 3.29823-11.8651 3.29823-9.25222 0.899521-9.25222 0.899521-7.41033 3.29823-7.41033 3.29823-3.12689C3.29823-1.92755 3.51242-1.11369 4.02643-0.642515 4.49759-0.214172 5.43997 0 6.85349 0L8.86672 0 8.86672-1.84188 7.02483-1.84188C6.08248-1.84188 5.69695-2.18455 5.69695-2.9984L5.69695-7.41033 8.86672-7.41033 8.86672-9.25222 5.69695-9.25222Z" fill="#000000" fill-rule="nonzero" fill-opacity="1" transform="matrix(1 0 0 1.00476 589.87 360.603)"/><path d="M8.86672-5.99681C8.86672-8.30986 7.96719-9.46638 6.21097-9.46638 5.0116-9.46638 4.15492-8.86672 3.81224-7.88152L3.81224-12.8503 1.41353-12.8503 1.41353 0 3.81224 0 3.81224-5.31146C3.81224-6.68216 4.3691-7.49602 5.22579-7.49602 6.08248-7.49602 6.42515-6.98201 6.42515-5.65413L6.42515 0 8.86672 0Z" fill="#000000" fill-rule="nonzero" fill-opacity="1" transform="matrix(1 0 0 1.00476 600.064 360.603)"/><path d="M9.1237-0.471178 9.1237-2.65573C7.92434-1.97038 6.85349-1.67054 5.78265-1.67054 4.06928-1.67054 3.21259-2.39872 3.21259-3.85509L9.50922-3.85509 9.50922-4.84027C9.50922-7.79585 7.92434-9.46638 5.14012-9.46638 3.81224-9.46638 2.7414-9.03806 1.92755-8.13852 1.15653-7.28184 0.771018-6.08248 0.771018-4.58329 0.771018-1.45637 2.44156 0.257006 5.52562 0.257006 6.85349 0.257006 7.96719 0 9.1237-0.471178ZM7.06765-5.65413 3.25541-5.65413C3.38393-6.89631 4.06928-7.58166 5.14012-7.58166 6.3823-7.58166 7.02483-6.93916 7.06765-5.65413Z" fill="#000000" fill-rule="nonzero" fill-opacity="1" transform="matrix(1 0 0 1.00476 610.258 360.603)"/><path d="M8.86672-5.99681C8.86672-8.30986 7.96719-9.46638 6.21097-9.46638 5.0116-9.46638 4.15492-8.86672 3.81224-7.88152L3.81224-9.25222 1.41353-9.25222 1.41353 0 3.81224 0 3.81224-5.31146C3.81224-6.68216 4.3691-7.49602 5.22579-7.49602 6.08248-7.49602 6.42515-6.98201 6.42515-5.65413L6.42515 0 8.86672 0Z" fill="#000000" fill-rule="nonzero" fill-opacity="1" transform="matrix(1 0 0 1.00476 620.451 360.603)"/><path d="M3.85509-9.42355C4.92596-9.42355 5.31146-8.7382 5.31146-7.96719 5.31146-7.06765 4.41195-6.33948 3.98358-6.03963L3.46957-6.33948C2.44156-7.02483 2.31305-7.53884 2.31305-8.05286 2.31305-8.82387 2.86991-9.42355 3.85509-9.42355ZM6.468-7.96719C6.468-9.1237 5.52562-10.0232 3.94076-10.0232 2.22739-10.0232 1.15653-8.99521 1.15653-7.753 1.15653-6.81067 1.6277-6.16814 2.61289-5.52562L3.04125-5.26864C2.57006-5.0116 2.09888-4.71178 1.71337-4.3691 1.02802-3.76942 0.771018-3.04125 0.771018-2.39872 0.771018-0.728184 1.92755 0.171337 3.68375 0.171337 5.82547 0.171337 6.85349-1.41353 6.85349-2.65573 6.85349-3.59808 6.468-4.45477 5.61131-4.96878L4.41195-5.69695C5.18294-6.03963 6.468-6.89631 6.468-7.96719ZM3.7266-0.428343C2.95556-0.428343 1.84188-0.899521 1.84188-2.39872 1.84188-2.86991 2.05605-4.02643 3.46957-4.96878L4.24061-4.49759C5.26864-3.89794 5.69695-3.12689 5.69695-2.31305 5.69695-0.685349 4.45477-0.428343 3.7266-0.428343Z" fill="#000000" fill-rule="nonzero" fill-opacity="1" transform="matrix(1 0 0 1.00476 402.899 383.928)"/><path d="M7.1105-8.05286C6.59649-8.99521 5.7398-9.46638 4.62611-9.46638 2.39872-9.46638 1.02802-7.66736 1.02802-4.66893 1.02802-1.6277 2.39872 0.257006 4.62611 0.257006 5.7398 0.257006 6.55364-0.257006 7.1105-1.15653L7.1105 0 8.60969 0 8.60969-12.8503 7.1105-12.8503ZM2.61289-4.62611C2.61289-6.98201 3.38393-8.18137 4.84027-8.18137 6.29666-8.18137 7.1105-6.98201 7.1105-4.62611 7.1105-2.27022 6.29666-1.02802 4.84027-1.02802 3.38393-1.02802 2.61289-2.27022 2.61289-4.62611Z" fill="#000000" fill-rule="nonzero" fill-opacity="1" transform="matrix(1 0 0 1.00476 487.866 383.928)"/><path d="M9.25222-9.25222 7.53884-9.25222 5.0973-5.91114 2.65573-9.25222 0.942355-9.25222 4.28343-4.84027 0.642515 0 2.39872 0 5.0973-3.7266 7.79585 0 9.55207 0 5.91114-4.84027Z" fill="#000000" fill-rule="nonzero" fill-opacity="1" transform="matrix(1 0 0 1.00476 498.059 383.928)"/><path d="M9.46638-7.92434 9.46638-9.42355 0.728184-5.99681 0.728184-4.62611 9.46638-1.15653 9.46638-2.65573 2.44156-5.31146Z" fill="#000000" fill-rule="nonzero" fill-opacity="1" transform="matrix(1 0 0 1.00476 518.447 383.928)"/><path d="M9.46638-7.92434 9.46638-9.42355 0.728184-5.99681 0.728184-4.62611 9.46638-1.15653 9.46638-2.65573 2.44156-5.31146Z" fill="#000000" fill-rule="nonzero" fill-opacity="1" transform="matrix(1 0 0 1.00476 528.64 383.928)"/><path d="M2.22739-1.41353 2.22739 0 9.03806 0 9.03806-1.41353 6.468-1.41353 6.468-12.3363 4.79745-12.3363 2.01321-11.7366 2.01321-10.1946 4.84027-10.8371 4.84027-1.41353Z" fill="#000000" fill-rule="nonzero" fill-opacity="1" transform="matrix(1 0 0 1.00476 549.028 383.928)"/><path d="M5.52562-4.79745C4.96878-4.41195 4.41195-4.41195 4.15492-4.41195 2.52723-4.41195 2.18455-5.99681 2.18455-6.81067 2.18455-8.60969 2.86991-9.42355 3.68375-9.42355 4.71178-9.42355 5.65413-8.86672 5.65413-6.08248 5.65413-5.69695 5.61131-5.26864 5.52562-4.79745ZM5.35428-4.19776C4.92596-2.69856 3.85509-1.07086 1.67054-0.214172 1.67054-0.0428343 1.75621 0.128503 1.88471 0.214172 3.55526-0.29984 4.54044-0.98519 5.4828-2.05605 6.51082-3.21259 7.02483-4.71178 7.02483-6.03963 7.02483-9.33789 5.0973-10.0232 3.85509-10.0232 1.71337-10.0232 0.813852-7.92434 0.813852-6.51082 0.813852-5.0973 1.58487-3.85509 3.81224-3.85509 4.24061-3.85509 4.88311-3.98358 5.35428-4.19776Z" fill="#000000" fill-rule="nonzero" fill-opacity="1" transform="matrix(1 0 0 1.00476 402.899 407.255)"/><path d="M9.1237-0.471178 9.1237-2.65573C7.92434-1.97038 6.85349-1.67054 5.78265-1.67054 4.06928-1.67054 3.21259-2.39872 3.21259-3.85509L9.50922-3.85509 9.50922-4.84027C9.50922-7.79585 7.92434-9.46638 5.14012-9.46638 3.81224-9.46638 2.7414-9.03806 1.92755-8.13852 1.15653-7.28184 0.771018-6.08248 0.771018-4.58329 0.771018-1.45637 2.44156 0.257006 5.52562 0.257006 6.85349 0.257006 7.96719 0 9.1237-0.471178ZM7.06765-5.65413 3.25541-5.65413C3.38393-6.89631 4.06928-7.58166 5.14012-7.58166 6.3823-7.58166 7.02483-6.93916 7.06765-5.65413Z" fill="#000000" fill-rule="nonzero" fill-opacity="1" transform="matrix(1 0 0 1.00476 467.544 407.255)"/><path d="M3.21259-3.85509C3.21259-1.07086 4.1121 0 6.42515 0L9.03806 0 9.03806-1.84188 7.1105-1.84188C6.03963-1.84188 5.61131-2.39872 5.61131-3.85509L5.61131-12.8503 0.728184-12.8503 0.728184-11.0084 3.21259-11.0084Z" fill="#000000" fill-rule="nonzero" fill-opacity="1" transform="matrix(1 0 0 1.00476 477.737 407.255)"/><path d="M8.18137-8.95236C7.19617-9.29504 6.12532-9.46638 5.0973-9.46638 2.7414-9.46638 1.41353-8.43835 1.41353-6.63934 1.41353-5.14012 2.22739-4.28343 4.06928-3.85509L4.75463-3.7266C5.52562-3.55526 6.03963-3.38393 6.21097-3.21259 6.42515-3.04125 6.51082-2.78422 6.51082-2.48439 6.51082-1.84188 5.95399-1.54204 4.79745-1.54204 3.76942-1.54204 2.65573-1.84188 1.58487-2.44156L1.58487-0.342675C2.78422 0.0428343 3.94076 0.257006 5.05445 0.257006 7.58166 0.257006 8.82387-0.728184 8.82387-2.61289 8.82387-4.19776 8.01003-5.0973 6.25381-5.52562L5.56846-5.69695 5.4828-5.69695C4.28343-5.99681 3.7266-6.33948 3.7266-6.76783 3.7266-7.41033 4.28343-7.71018 5.35428-7.71018 6.29666-7.71018 7.28184-7.41033 8.18137-6.85349Z" fill="#000000" fill-rule="nonzero" fill-opacity="1" transform="matrix(1 0 0 1.00476 487.931 407.255)"/><path d="M9.1237-0.471178 9.1237-2.65573C7.92434-1.97038 6.85349-1.67054 5.78265-1.67054 4.06928-1.67054 3.21259-2.39872 3.21259-3.85509L9.50922-3.85509 9.50922-4.84027C9.50922-7.79585 7.92434-9.46638 5.14012-9.46638 3.81224-9.46638 2.7414-9.03806 1.92755-8.13852 1.15653-7.28184 0.771018-6.08248 0.771018-4.58329 0.771018-1.45637 2.44156 0.257006 5.52562 0.257006 6.85349 0.257006 7.96719 0 9.1237-0.471178ZM7.06765-5.65413 3.25541-5.65413C3.38393-6.89631 4.06928-7.58166 5.14012-7.58166 6.3823-7.58166 7.02483-6.93916 7.06765-5.65413Z" fill="#000000" fill-rule="nonzero" fill-opacity="1" transform="matrix(1 0 0 1.00476 498.125 407.255)"/><path d="M4.71178-2.01321 4.71178-7.71018C4.71178-8.69538 4.75463-9.68056 4.75463-9.89475 4.75463-9.98039 4.75463-9.98039 4.66893-9.98039 3.76942-9.42355 2.91273-8.99521 1.45637-8.35271 1.4992-8.13852 1.54204-8.01003 1.71337-7.88152 2.44156-8.18137 2.82707-8.30986 3.12689-8.30986 3.42675-8.30986 3.46957-7.92434 3.46957-7.36751L3.46957-2.01321C3.46957-0.642515 2.9984-0.556846 1.88471-0.514012 1.75621-0.428343 1.75621-0.0856687 1.88471 0.0428343 2.65573 0 3.25541 0 4.15492 0 4.92596 0 5.31146 0 6.16814 0.0428343 6.25381-0.0856687 6.25381-0.428343 6.16814-0.514012 5.0116-0.556846 4.71178-0.642515 4.71178-2.01321Z" fill="#000000" fill-rule="nonzero" fill-opacity="1" transform="matrix(1 0 0 1.00476 395.278 430.58)"/><path d="M3.81224-9.42355C4.06928-9.42355 4.32625-9.33789 4.54044-9.16655 5.05445-8.7382 5.4828-7.49602 5.4828-5.26864 5.4828-3.76942 5.43997-2.7414 5.22579-1.88471 4.84027-0.556846 4.06928-0.428343 3.76942-0.428343 2.22739-0.428343 2.05605-3.21259 2.05605-4.62611 2.05605-8.69538 3.08407-9.42355 3.81224-9.42355ZM3.7266 0.171337C5.0116 0.171337 6.93916-1.11369 6.93916-4.96878 6.93916-6.59649 6.51082-8.01003 5.82547-8.95236 5.39713-9.50922 4.71178-10.0232 3.81224-10.0232 2.18455-10.0232 0.642515-8.05286 0.642515-4.84027 0.642515-3.08407 1.19936-1.41353 2.09888-0.514012 2.52723-0.0856687 3.08407 0.171337 3.7266 0.171337Z" fill="#000000" fill-rule="nonzero" fill-opacity="1" transform="matrix(1 0 0 1.00476 402.897 430.58)"/><path d="M7.1105-8.05286C6.59649-8.99521 5.7398-9.46638 4.62611-9.46638 2.39872-9.46638 1.02802-7.66736 1.02802-4.66893 1.02802-1.6277 2.39872 0.257006 4.62611 0.257006 5.7398 0.257006 6.55364-0.257006 7.1105-1.15653L7.1105 0 8.60969 0 8.60969-12.8503 7.1105-12.8503ZM2.61289-4.62611C2.61289-6.98201 3.38393-8.18137 4.84027-8.18137 6.29666-8.18137 7.1105-6.98201 7.1105-4.62611 7.1105-2.27022 6.29666-1.02802 4.84027-1.02802 3.38393-1.02802 2.61289-2.27022 2.61289-4.62611Z" fill="#000000" fill-rule="nonzero" fill-opacity="1" transform="matrix(1 0 0 1.00476 487.866 430.58)"/><path d="M9.25222-9.25222 7.53884-9.25222 5.0973-5.91114 2.65573-9.25222 0.942355-9.25222 4.28343-4.84027 0.642515 0 2.39872 0 5.0973-3.7266 7.79585 0 9.55207 0 5.91114-4.84027Z" fill="#000000" fill-rule="nonzero" fill-opacity="1" transform="matrix(1 0 0 1.00476 498.059 430.58)"/><path d="M5.78265-9.68056 4.41195-9.68056 4.41195-5.99681 0.728184-5.99681 0.728184-4.58329 4.41195-4.58329 4.41195-0.942355 5.78265-0.942355 5.78265-4.58329 9.46638-4.58329 9.46638-5.99681 5.78265-5.99681Z" fill="#000000" fill-rule="nonzero" fill-opacity="1" transform="matrix(1 0 0 1.00476 518.447 430.58)"/><path d="M7.1105-8.05286C6.59649-8.99521 5.7398-9.46638 4.62611-9.46638 2.39872-9.46638 1.02802-7.66736 1.02802-4.66893 1.02802-1.6277 2.39872 0.257006 4.62611 0.257006 5.7398 0.257006 6.55364-0.257006 7.1105-1.15653L7.1105 0 8.60969 0 8.60969-12.8503 7.1105-12.8503ZM2.61289-4.62611C2.61289-6.98201 3.38393-8.18137 4.84027-8.18137 6.29666-8.18137 7.1105-6.98201 7.1105-4.62611 7.1105-2.27022 6.29666-1.02802 4.84027-1.02802 3.38393-1.02802 2.61289-2.27022 2.61289-4.62611Z" fill="#000000" fill-rule="nonzero" fill-opacity="1" transform="matrix(1 0 0 1.00476 538.834 430.58)"/><path d="M7.1105-2.9984 9.50922-9.25222 7.92434-9.25222 5.22579-2.01321 2.48439-9.25222 0.856687-9.25222 4.41195-0.171337C4.02643 0.942355 3.7266 1.6277 3.46957 1.84188 3.21259 2.09888 2.86991 2.27022 2.39872 2.27022L1.54204 2.27022 1.54204 3.51242 2.7414 3.51242C3.76942 3.51242 4.49759 3.08407 5.0116 2.22739 5.22579 1.92755 5.56846 1.02802 6.12532-0.428343 6.51082-1.4992 6.85349-2.35589 7.1105-2.9984Z" fill="#000000" fill-rule="nonzero" fill-opacity="1" transform="matrix(1 0 0 1.00476 549.028 430.58)"/></g></g></g></g></g></svg>