<svg xmlns="http://www.w3.org/2000/svg" viewBox="0 0 64 64">
  <!-- Colors live here: edit the values below; the dark block applies when the
       viewer uses a dark color scheme. This file is used both by the favicon
       and the header logo in index.html. -->
  <style>
    .bulb { fill: none; stroke: #000000; stroke-width: 2.5; stroke-linecap: round; stroke-linejoin: round; }
    .edge { stroke: #8a919c; stroke-width: 1.5; }
    .eclass { fill: none; stroke: #d97706; stroke-width: 2; stroke-dasharray: 4 3; stroke-linecap: round; }
    .enode { fill: #d97706; }
    @media (prefers-color-scheme: dark) {
      .bulb { stroke: #e8eaed; }
      .edge { stroke: #9aa3af; }
      .eclass { stroke: #e8b45a; }
      .enode { fill: #e8b45a; }
    }
  </style>
  <path class="bulb" d="M23 36 A15 15 0 1 1 41 36 C38.5 38.5 38 40.5 38 43.5 L38 45 A2 2 0 0 1 36 47 L28 47 A2 2 0 0 1 26 45 L26 43.5 C26 40.5 25.5 38.5 23 36 Z"/>
  <line class="bulb" x1="27.5" y1="50.5" x2="36.5" y2="50.5"/>
  <line class="bulb" x1="29.5" y1="54" x2="34.5" y2="54"/>
  <line class="edge" x1="26.5" y1="25" x2="32" y2="37"/>
  <line class="edge" x1="37.5" y1="25" x2="32" y2="37"/>
  <!-- <line class="edge" x1="32" y1="37" x2="32" y2="44.5"/> -->
  <rect class="eclass" x="20.5" y="19.5" width="23" height="11" rx="5.5"/>
  <circle class="enode" cx="26.5" cy="25" r="3.2"/>
  <circle class="enode" cx="37.5" cy="25" r="3.2"/>
  <circle class="enode" cx="32" cy="37" r="3.2"/>
</svg>
