<svg class="hero-logo" role="img" aria-label="Smart E-Graphs" xmlns="http://www.w3.org/2000/svg" xmlns:xlink="http://www.w3.org/1999/xlink" viewBox="0 0 197.972 83.249">
<defs>
<g>
<g id="glyph-0-0">
<path d="M 8.703125 -9.171875 L 8.703125 -14.53125 C 10.90625 -14.53125 15.765625 -14.390625 18.921875 -14.0625 L 19.0625 -14.203125 C 18.96875 -14.625 18.921875 -15.265625 18.921875 -15.671875 C 18.921875 -16.078125 18.96875 -16.734375 19.0625 -17.140625 L 18.921875 -17.28125 C 16.21875 -17.046875 14.109375 -16.8125 8.703125 -16.8125 L 8.703125 -20.390625 C 8.703125 -21.171875 8.75 -25.890625 9.078125 -27 C 15.21875 -27 21.546875 -26.4375 21.546875 -26.4375 L 21.625 -26.625 C 21.578125 -27 21.546875 -27.40625 21.546875 -27.8125 C 21.546875 -28.1875 21.578125 -28.921875 21.625 -29.5625 L 21.546875 -29.703125 C 20.8125 -29.609375 19.75 -29.5625 18.796875 -29.5625 L 6.734375 -29.5625 C 5.171875 -29.5625 4.40625 -29.703125 4.40625 -29.703125 L 4.3125 -29.5625 C 4.671875 -26.953125 4.765625 -23.828125 4.765625 -20.390625 L 4.765625 -9.171875 C 4.765625 -5.734375 4.671875 -2.46875 4.3125 0 L 4.359375 0.140625 C 4.359375 0.140625 5.125 0 6.734375 0 L 19.25 0 C 20.203125 0 21.265625 0.046875 22 0.140625 L 22.09375 0 C 22.046875 -0.640625 22 -0.96875 22 -1.421875 C 22 -1.875 22.046875 -2.5625 22.09375 -2.9375 L 22 -3.109375 C 22 -3.109375 15.21875 -2.5625 9.078125 -2.5625 C 8.75 -3.671875 8.703125 -8.390625 8.703125 -9.171875 Z M 8.703125 -9.171875 "/>
</g>
<g id="glyph-0-1">
<path d="M 25.015625 -5.359375 L 25.015625 -3.296875 C 23.46875 -1.828125 20.765625 -1.5625 18.28125 -1.5625 C 10.125 -1.5625 7.109375 -8.9375 7.109375 -14.984375 C 7.109375 -23 11.546875 -28.140625 17.734375 -28.140625 C 21.859375 -28.140625 25.390625 -25.84375 27.453125 -22.359375 L 28 -22.40625 C 28.140625 -24.75 28.40625 -25.984375 28.921875 -27.71875 L 28.828125 -27.859375 C 28.828125 -27.859375 23.96875 -30.15625 18.375 -30.15625 C 10.5 -30.15625 2.390625 -24.609375 2.390625 -14.53125 C 2.390625 -6.59375 8.015625 0.453125 17.234375 0.453125 C 22.546875 0.453125 26.3125 -1.046875 29.421875 -3.671875 L 29.421875 -3.796875 C 29.015625 -4.265625 28.96875 -5.5 28.96875 -6 L 28.96875 -6.28125 C 28.96875 -9.71875 29.0625 -11.640625 29.421875 -14.0625 L 29.375 -14.203125 C 29.375 -14.203125 28.59375 -14.0625 27 -14.0625 C 25.4375 -14.0625 24.65625 -14.203125 24.65625 -14.203125 L 24.5625 -14.0625 C 24.9375 -11.453125 25.015625 -8.796875 25.015625 -5.359375 Z M 25.015625 -5.359375 "/>
</g>
<g id="glyph-0-2">
<path d="M 7.65625 -15.3125 L 7.65625 -19.484375 C 7.65625 -19.796875 7.5625 -19.9375 7.375 -19.9375 C 6.328125 -19.703125 4.671875 -19.65625 3.671875 -19.796875 L 3.578125 -19.65625 C 3.890625 -17.640625 3.984375 -14.203125 3.984375 -10.765625 L 3.984375 -8.25 C 3.984375 -4.8125 3.890625 -2.421875 3.578125 0 L 3.671875 0.140625 C 4.21875 0.046875 5.265625 0 5.8125 0 C 6.375 0 7.421875 0.046875 7.96875 0.140625 L 8.0625 0 C 7.703125 -2.609375 7.65625 -4.765625 7.65625 -8.25 L 7.65625 -10.625 C 7.65625 -12.5625 8.203125 -13.65625 9.21875 -15.171875 C 9.859375 -16.171875 10.90625 -16.765625 11.78125 -16.765625 C 12.6875 -16.765625 13.5625 -16.6875 14.15625 -16.125 L 14.53125 -16.21875 L 15.4375 -19.609375 L 15.265625 -19.796875 C 14.484375 -20.03125 14.4375 -20.125 13.609375 -20.125 C 11.140625 -20.125 9.8125 -18.703125 7.796875 -15.21875 Z M 7.65625 -15.3125 "/>
</g>
<g id="glyph-0-3">
<path d="M 14.203125 -10.3125 L 14.015625 -4.859375 C 14.015625 -4.265625 13.75 -3.9375 13.375 -3.671875 C 12.09375 -2.703125 10.546875 -1.875 9.171875 -1.875 C 7.109375 -1.875 5.78125 -3.25 5.78125 -4.671875 C 5.78125 -6.734375 6.734375 -8.296875 10.3125 -9.25 Z M 14.203125 -2.203125 C 14.703125 -0.40625 16.078125 0.453125 17.78125 0.453125 C 18.921875 0.453125 20.34375 0.1875 21.40625 -0.96875 L 21.078125 -2.0625 C 20.578125 -1.921875 20.171875 -1.828125 19.84375 -1.828125 C 19.390625 -1.828125 18.796875 -1.921875 18.46875 -2.203125 C 18.015625 -2.609375 17.734375 -3.71875 17.734375 -5.78125 C 17.734375 -7.109375 17.875 -12.1875 17.875 -12.6875 C 17.875 -18.875 13.796875 -20.125 10.3125 -20.125 C 6.828125 -20.125 4.71875 -18.421875 3.578125 -17.453125 L 3.4375 -17.28125 L 4.21875 -14.203125 L 4.8125 -14.15625 C 6.09375 -16.21875 7.65625 -18.0625 9.859375 -18.0625 C 11.5 -18.0625 14.25 -17.828125 14.25 -12.65625 C 14.25 -12.328125 14.0625 -12.140625 13.9375 -12.09375 L 9.671875 -11.140625 C 5 -10.078125 2.0625 -7.609375 2.0625 -4.484375 C 2.0625 -1.09375 4.40625 0.453125 7.796875 0.453125 C 10.3125 0.453125 11.59375 -0.140625 14.015625 -2.203125 Z M 14.203125 -2.203125 "/>
</g>
<g id="glyph-0-4">
<path d="M 7.421875 -13.46875 C 8.4375 -15.90625 11.140625 -18.015625 12.921875 -18.015625 C 16.046875 -18.015625 17.640625 -15.171875 17.640625 -9.984375 C 17.640625 -6.234375 16.59375 -1.375 11.6875 -1.375 C 10.953125 -1.375 9.03125 -1.5625 7.421875 -3.4375 Z M 7.421875 -16.125 L 7.421875 -19.484375 C 7.421875 -19.796875 7.328125 -19.9375 7.15625 -19.9375 C 6.09375 -19.703125 4.453125 -19.65625 3.4375 -19.796875 L 3.34375 -19.65625 C 3.671875 -17.640625 3.765625 -14.203125 3.765625 -10.765625 L 3.765625 1.46875 C 3.765625 4.90625 3.671875 8.203125 3.34375 10.625 L 3.4375 10.765625 C 3.984375 10.671875 5.046875 10.625 5.59375 10.625 C 6.140625 10.625 7.1875 10.671875 7.75 10.765625 L 7.84375 10.625 C 7.46875 8.015625 7.421875 4.953125 7.421875 1.46875 L 7.421875 -0.546875 C 8.609375 0.09375 10.3125 0.453125 11.96875 0.453125 C 18.015625 0.453125 21.671875 -4.125 21.671875 -10.59375 C 21.671875 -15.4375 18.828125 -20.125 13.703125 -20.125 C 11.921875 -20.125 9.625 -19.203125 7.515625 -16 Z M 7.421875 -16.125 "/>
</g>
<g id="glyph-0-5">
<path d="M 7.796875 -16.125 L 7.796875 -22.953125 C 7.796875 -26.34375 7.96875 -28.6875 8.203125 -31.53125 C 8.203125 -31.84375 8.0625 -31.984375 7.796875 -31.984375 C 6.640625 -31.53125 5.640625 -31.203125 3.796875 -31.078125 L 3.71875 -30.9375 C 4.03125 -28.96875 4.125 -25.53125 4.125 -22.046875 L 4.125 -8.25 C 4.125 -4.8125 4.03125 -2.5625 3.71875 0 L 3.796875 0.140625 C 4.359375 0.046875 5.40625 0 5.953125 0 C 6.5 0 7.5625 0.046875 8.109375 0.140625 L 8.203125 0 C 7.84375 -2.609375 7.796875 -4.765625 7.796875 -8.25 L 7.796875 -13.609375 C 10.125 -16.359375 12.78125 -17.375 14.4375 -17.375 C 16.765625 -17.375 17.734375 -16.453125 17.734375 -12.734375 L 17.734375 -8.25 C 17.734375 -4.8125 17.6875 -2.421875 17.328125 0 L 17.421875 0.140625 C 17.96875 0.046875 19.015625 0 19.5625 0 C 20.125 0 21.171875 0.046875 21.71875 0.140625 L 21.8125 0 C 21.453125 -2.609375 21.40625 -4.765625 21.40625 -8.25 C 21.40625 -9.71875 21.5 -11.40625 21.5 -12.875 C 21.5 -17.640625 19.9375 -20.125 15.8125 -20.125 C 14.0625 -20.125 10.8125 -19.4375 7.875 -16 Z M 7.796875 -16.125 "/>
</g>
<g id="glyph-0-6">
<path d="M 2.296875 -4.625 L 1.515625 -0.78125 C 4.125 0.140625 6.6875 0.453125 8.4375 0.453125 C 14.75 0.453125 16.21875 -3.296875 16.21875 -5.8125 C 16.21875 -9.578125 13.25 -11.046875 9.984375 -11.828125 C 8.25 -12.234375 5.734375 -13.109375 5.734375 -15.390625 C 5.734375 -17.28125 7.234375 -18.28125 9.21875 -18.28125 C 11.59375 -18.28125 13.0625 -16.40625 14.109375 -15.171875 L 14.75 -15.21875 L 15.671875 -18.609375 L 15.578125 -18.75 C 14.25 -19.4375 11.734375 -20.125 9.390625 -20.125 C 6 -20.125 2.46875 -18.328125 2.46875 -14.53125 C 2.46875 -10.859375 5.171875 -9.625 7.96875 -8.890625 C 10.625 -8.15625 12.609375 -7.421875 12.609375 -5.171875 C 12.609375 -2.75 10.8125 -1.375 8.390625 -1.375 C 6.1875 -1.375 4.265625 -2.890625 2.984375 -4.671875 Z M 2.296875 -4.625 "/>
</g>
<g id="glyph-1-0">
<path d="M 5.78125 -0.8125 C 4.453125 -0.8125 2.71875 -1.984375 1.984375 -3.390625 L 1.75 -3.375 C 1.65625 -2.515625 1.390625 -1.625 1.1875 -0.90625 L 1.25 -0.84375 C 1.25 -0.84375 2.796875 0.234375 5.59375 0.234375 C 8.53125 0.234375 10.8125 -1.546875 10.8125 -4.328125 C 10.8125 -7.09375 8.46875 -8.359375 6.53125 -9.109375 C 5.3125 -9.5625 3.609375 -10.25 3.609375 -12.234375 C 3.609375 -13.09375 4.09375 -14.0625 4.703125 -14.390625 C 5.109375 -14.609375 5.625 -14.671875 6.171875 -14.671875 C 7.484375 -14.671875 8.78125 -13.65625 9.421875 -12.171875 L 9.65625 -12.1875 C 9.75 -13.046875 10 -13.859375 10.203125 -14.578125 L 10.15625 -14.65625 C 10.15625 -14.65625 9.15625 -15.734375 6.359375 -15.734375 C 5.71875 -15.734375 5 -15.609375 4.296875 -15.328125 C 2.890625 -14.71875 1.671875 -13.34375 1.671875 -11.59375 C 1.671875 -9.078125 3.796875 -7.90625 5.78125 -7.078125 C 7.34375 -6.4375 8.578125 -5.640625 8.578125 -3.609375 C 8.578125 -1.8125 7.203125 -0.8125 5.78125 -0.8125 Z M 5.78125 -0.8125 "/>
</g>
<g id="glyph-1-1">
<path d="M 3.875 -8.421875 L 3.875 -10.15625 C 3.875 -10.328125 3.828125 -10.40625 3.734375 -10.40625 C 3.171875 -10.28125 2.3125 -10.25 1.796875 -10.328125 L 1.75 -10.25 C 1.90625 -9.203125 1.953125 -7.40625 1.953125 -5.625 L 1.953125 -4.296875 C 1.953125 -2.515625 1.9375 -1.296875 1.75 0 L 1.796875 0.078125 C 2.078125 0.03125 2.625 0 2.921875 0 C 3.203125 0 3.75 0.03125 4.046875 0.078125 L 4.09375 0 C 3.890625 -1.359375 3.875 -2.484375 3.875 -4.296875 L 3.875 -7.203125 C 5 -8.34375 6.328125 -9.0625 7.171875 -9.0625 C 8.078125 -9.0625 8.75 -8.53125 8.75 -6.9375 L 8.75 -4.296875 C 8.75 -2.515625 8.71875 -1.296875 8.53125 0 L 8.578125 0.078125 C 8.875 0.03125 9.421875 0 9.703125 0 C 10 0 10.546875 0.03125 10.828125 0.078125 L 10.875 0 C 10.6875 -1.359375 10.65625 -2.484375 10.65625 -4.296875 L 10.65625 -6.71875 C 10.65625 -7.046875 10.65625 -7.34375 10.640625 -7.625 C 11.78125 -8.890625 12.734375 -9.0625 13.671875 -9.0625 C 14.96875 -9.0625 15.59375 -8.53125 15.59375 -6.9375 L 15.59375 -4.296875 C 15.59375 -2.515625 15.5625 -1.296875 15.375 0 L 15.421875 0.078125 C 15.703125 0.03125 16.25 0 16.546875 0 C 16.828125 0 17.375 0.03125 17.671875 0.078125 L 17.71875 0 C 17.515625 -1.359375 17.5 -2.484375 17.5 -4.296875 L 17.5 -6.6875 C 17.5 -8.828125 17.109375 -10.5 14.53125 -10.5 C 13.25 -10.5 11.859375 -10.046875 10.5 -8.609375 C 10.28125 -9.75 9.296875 -10.5 7.953125 -10.5 C 6.484375 -10.5 5.0625 -9.53125 3.9375 -8.34375 Z M 3.875 -8.421875 "/>
</g>
<g id="glyph-1-2">
<path d="M 7.40625 -5.375 L 7.3125 -2.53125 C 7.3125 -2.21875 7.171875 -2.0625 6.984375 -1.90625 C 6.3125 -1.40625 5.5 -0.984375 4.78125 -0.984375 C 3.703125 -0.984375 3.015625 -1.703125 3.015625 -2.4375 C 3.015625 -3.515625 3.515625 -4.328125 5.375 -4.828125 Z M 7.40625 -1.140625 C 7.671875 -0.21875 8.390625 0.234375 9.28125 0.234375 C 9.875 0.234375 10.609375 0.09375 11.171875 -0.5 L 11 -1.078125 C 10.734375 -1 10.515625 -0.953125 10.34375 -0.953125 C 10.109375 -0.953125 9.796875 -1 9.640625 -1.140625 C 9.390625 -1.359375 9.25 -1.9375 9.25 -3.015625 C 9.25 -3.703125 9.328125 -6.359375 9.328125 -6.625 C 9.328125 -9.84375 7.203125 -10.5 5.375 -10.5 C 3.5625 -10.5 2.46875 -9.609375 1.859375 -9.109375 L 1.796875 -9.015625 L 2.203125 -7.40625 L 2.515625 -7.390625 C 3.171875 -8.46875 4 -9.421875 5.140625 -9.421875 C 6 -9.421875 7.4375 -9.296875 7.4375 -6.59375 C 7.4375 -6.4375 7.34375 -6.328125 7.265625 -6.3125 L 5.046875 -5.8125 C 2.609375 -5.265625 1.078125 -3.96875 1.078125 -2.34375 C 1.078125 -0.578125 2.296875 0.234375 4.0625 0.234375 C 5.375 0.234375 6.046875 -0.078125 7.3125 -1.140625 Z M 7.40625 -1.140625 "/>
</g>
<g id="glyph-1-3">
<path d="M 4 -7.984375 L 4 -10.15625 C 4 -10.328125 3.9375 -10.40625 3.84375 -10.40625 C 3.296875 -10.28125 2.4375 -10.25 1.90625 -10.328125 L 1.859375 -10.25 C 2.03125 -9.203125 2.078125 -7.40625 2.078125 -5.625 L 2.078125 -4.296875 C 2.078125 -2.515625 2.03125 -1.265625 1.859375 0 L 1.90625 0.078125 C 2.203125 0.03125 2.75 0 3.03125 0 C 3.328125 0 3.875 0.03125 4.15625 0.078125 L 4.203125 0 C 4.015625 -1.359375 4 -2.484375 4 -4.296875 L 4 -5.546875 C 4 -6.546875 4.28125 -7.125 4.8125 -7.90625 C 5.140625 -8.4375 5.6875 -8.75 6.140625 -8.75 C 6.625 -8.75 7.078125 -8.703125 7.390625 -8.421875 L 7.578125 -8.46875 L 8.0625 -10.234375 L 7.953125 -10.328125 C 7.546875 -10.453125 7.53125 -10.5 7.09375 -10.5 C 5.8125 -10.5 5.109375 -9.75 4.0625 -7.9375 Z M 4 -7.984375 "/>
</g>
<g id="glyph-1-4">
<path d="M 2.265625 -10.25 C 1.765625 -10.25 1.265625 -10.25 0.984375 -10.296875 C 0.8125 -9.890625 0.671875 -9.6875 0.453125 -9.328125 L 0.578125 -9.15625 C 0.984375 -9.1875 1.71875 -9.1875 2.265625 -9.203125 L 2.265625 -5.921875 C 2.265625 -4.5 2.203125 -2.765625 2.203125 -2.0625 C 2.203125 -0.5 3.203125 0.234375 4.296875 0.234375 C 5.3125 0.234375 6.078125 0 7.078125 -0.640625 L 6.765625 -1.21875 C 6.046875 -0.984375 5.5 -0.953125 4.90625 -1.046875 C 4.328125 -1.125 4.109375 -1.703125 4.109375 -3.015625 C 4.109375 -3.734375 4.1875 -4.75 4.1875 -6.1875 L 4.1875 -9.203125 L 5.09375 -9.203125 C 5.671875 -9.203125 6.484375 -9.1875 6.8125 -9.15625 C 6.890625 -9.53125 6.953125 -9.78125 7.09375 -10.140625 L 6.984375 -10.296875 C 6.546875 -10.28125 5.859375 -10.25 5.3125 -10.25 L 4.1875 -10.25 C 4.1875 -12.03125 4.1875 -12.359375 4.296875 -13.75 C 4.296875 -13.90625 4.234375 -13.984375 4.09375 -13.984375 C 3.484375 -13.75 3.171875 -13.484375 2.421875 -13.390625 L 2.359375 -13.3125 C 2.3125 -12.484375 2.265625 -11.640625 2.265625 -10.25 Z M 2.265625 -10.25 "/>
</g>
</g>
<clipPath id="clip-0">
<path clip-rule="nonzero" d="M 24.996094 5.976562 L 60.855469 5.976562 L 60.855469 57 L 24.996094 57 Z M 24.996094 5.976562 "/>
</clipPath>
<clipPath id="clip-1">
<path clip-rule="nonzero" d="M 0.996094 2 L 36.855469 2 L 36.855469 38 L 0.996094 38 Z M 0.996094 2 "/>
</clipPath>
<clipPath id="clip-2">
<rect x="0" y="0" width="37" height="52"/>
</clipPath>

</defs>
<g clip-path="url(#clip-0)">
<g transform="matrix(1, 0, 0, 1, 24, 5)"><g clip-path="url(#clip-2)">
<path class="lamp-bulb" fill="none" stroke-width="1.875" stroke-linecap="round" stroke-linejoin="round" stroke="rgb(0%, 0%, 0%)" stroke-opacity="1" stroke-miterlimit="4" d="M 17.249909 27.001273 C 13.375072 24.095145 11.797378 19.036329 13.326919 14.442041 C 14.859293 9.847752 19.156171 6.749015 23.999718 6.749015 C 28.843265 6.749015 33.140143 9.847752 34.672517 14.442041 C 36.202058 19.036329 34.624365 24.095145 30.749527 27.001273 C 28.874423 28.876378 28.500535 30.374762 28.500535 32.623754 L 28.500535 33.751082 C 28.500535 34.578167 27.829236 35.249466 26.999318 35.249466 L 21.000118 35.249466 C 20.173033 35.249466 19.498901 34.578167 19.498901 33.751082 L 19.498901 32.623754 C 19.498901 30.374762 19.125014 28.876378 17.249909 27.001273 Z M 17.249909 27.001273 " transform="matrix(1.37909, 0, 0, 1.37909, -14.17199, -5.92078)"/>
<path class="lamp-bulb" fill="none" stroke-width="1.875" stroke-linecap="round" stroke-linejoin="round" stroke="rgb(0%, 0%, 0%)" stroke-opacity="1" stroke-miterlimit="4" d="M 20.62623 37.875179 L 27.376039 37.875179 " transform="matrix(1.37909, 0, 0, 1.37909, -14.17199, -5.92078)"/>
<path class="lamp-bulb" fill="none" stroke-width="1.875" stroke-linecap="round" stroke-linejoin="round" stroke="rgb(0%, 0%, 0%)" stroke-opacity="1" stroke-miterlimit="4" d="M 22.124614 40.500891 L 25.874822 40.500891 " transform="matrix(1.37909, 0, 0, 1.37909, -14.17199, -5.92078)"/>
<path class="lamp-edge" fill-rule="nonzero" fill="rgb(0%, 0%, 0%)" fill-opacity="1" stroke-width="1.125" stroke-linecap="butt" stroke-linejoin="miter" stroke="rgb(54.116821%, 56.861877%, 61.175537%)" stroke-opacity="1" stroke-miterlimit="4" style="--d:1.0s" d="M 19.875622 18.750248 L 23.999718 27.749049 " transform="matrix(1.37909, 0, 0, 1.37909, -14.17199, -5.92078)"/>
<path class="lamp-edge" fill-rule="nonzero" fill="rgb(0%, 0%, 0%)" fill-opacity="1" stroke-width="1.125" stroke-linecap="butt" stroke-linejoin="miter" stroke="rgb(54.116821%, 56.861877%, 61.175537%)" stroke-opacity="1" stroke-miterlimit="4" style="--d:1.05s" d="M 28.123814 18.750248 L 23.999718 27.749049 " transform="matrix(1.37909, 0, 0, 1.37909, -14.17199, -5.92078)"/>
<g clip-path="url(#clip-1)">
<path class="lamp-eclass" fill="none" stroke-width="1.5" stroke-linecap="round" stroke-linejoin="miter" stroke="rgb(85.096741%, 46.665955%, 2.352905%)" stroke-opacity="1" stroke-dasharray="3 2.25" stroke-miterlimit="4" d="M 19.498901 14.626152 L 28.500535 14.626152 C 30.777852 14.626152 32.624631 16.472931 32.624631 18.750248 C 32.624631 21.027565 30.777852 22.874345 28.500535 22.874345 L 19.498901 22.874345 C 17.221585 22.874345 15.374805 21.027565 15.374805 18.750248 C 15.374805 16.472931 17.221585 14.626152 19.498901 14.626152 Z M 19.498901 14.626152 " transform="matrix(1.37909, 0, 0, 1.37909, -14.17199, -5.92078)"/>
</g>
<path class="lamp-node" fill-rule="nonzero" fill="rgb(85.096741%, 46.665955%, 2.352905%)" fill-opacity="1" style="--d:1.35s" d="M 16.542969 19.9375 C 16.542969 21.761719 15.0625 23.246094 13.238281 23.246094 C 11.410156 23.246094 9.929688 21.761719 9.929688 19.9375 C 9.929688 18.109375 11.410156 16.628906 13.238281 16.628906 C 15.0625 16.628906 16.542969 18.109375 16.542969 19.9375 Z M 16.542969 19.9375 "/>
<path class="lamp-node" fill-rule="nonzero" fill="rgb(85.096741%, 46.665955%, 2.352905%)" fill-opacity="1" style="--d:1.45s" d="M 27.921875 19.9375 C 27.921875 21.761719 26.441406 23.246094 24.613281 23.246094 C 22.789062 23.246094 21.308594 21.761719 21.308594 19.9375 C 21.308594 18.109375 22.789062 16.628906 24.613281 16.628906 C 26.441406 16.628906 27.921875 18.109375 27.921875 19.9375 Z M 27.921875 19.9375 "/>
<path class="lamp-node" fill-rule="nonzero" fill="rgb(85.096741%, 46.665955%, 2.352905%)" fill-opacity="1" style="--d:0.7s" d="M 22.234375 32.347656 C 22.234375 34.175781 20.753906 35.65625 18.925781 35.65625 C 17.101562 35.65625 15.617188 34.175781 15.617188 32.347656 C 15.617188 30.523438 17.101562 29.042969 18.925781 29.042969 C 20.753906 29.042969 22.234375 30.523438 22.234375 32.347656 Z M 22.234375 32.347656 "/>
</g></g>
</g>
<g fill="rgb(0%, 0%, 0%)" fill-opacity="1">
<use xlink:href="#glyph-0-0" x="5.978" y="66.639"/>
</g>
<g fill="rgb(0%, 0%, 0%)" fill-opacity="1">
<use xlink:href="#glyph-0-1" x="53.547568" y="66.639"/>
<use xlink:href="#glyph-0-2" x="86.406316" y="66.639"/>
<use xlink:href="#glyph-0-3" x="102.675291" y="66.639"/>
<use xlink:href="#glyph-0-4" x="124.718607" y="66.639"/>
<use xlink:href="#glyph-0-5" x="148.686703" y="66.639"/>
<use xlink:href="#glyph-0-6" x="173.84633" y="66.639"/>
</g>
<g class="lamp-word" fill="rgb(85.096741%, 46.665955%, 2.352905%)" fill-opacity="1">
<use xlink:href="#glyph-1-0" x="64.088" y="29.789"/>
<use xlink:href="#glyph-1-1" x="76.186612" y="29.789"/>
<use xlink:href="#glyph-1-2" x="95.482224" y="29.789"/>
<use xlink:href="#glyph-1-3" x="106.983078" y="29.789"/>
<use xlink:href="#glyph-1-4" x="115.471235" y="29.789"/>
</g>
</svg>
